<mxfile host="app.diagrams.net" modified="2023-01-25T13:24:17.562Z" agent="5.0 (Windows NT 10.0; Win64; x64) AppleWebKit/537.36 (KHTML, like Gecko) Chrome/109.0.0.0 Safari/537.36" etag="pRlMVhry4UGetRODeQgm" version="20.8.5" type="github">
  <diagram id="eIZXaJ1aoK0Z8hnhlXtD" name="Страница 1">
    <mxGraphModel dx="6155" dy="1912" grid="0" gridSize="10" guides="1" tooltips="1" connect="1" arrows="1" fold="1" page="1" pageScale="1" pageWidth="827" pageHeight="1169" math="0" shadow="0">
      <root>
        <mxCell id="0" />
        <mxCell id="1" parent="0" />
        <mxCell id="Got-eOJTaQWGUMFf_648-1" value="" style="points=[[0.03,0.03,0],[0.5,0,0],[0.97,0.03,0],[1,0.4,0],[0.97,0.745,0],[0.5,1,0],[0.03,0.745,0],[0,0.4,0]];verticalLabelPosition=bottom;sketch=0;html=1;verticalAlign=top;aspect=fixed;align=center;pointerEvents=1;shape=mxgraph.cisco19.workstation;fillColor=#005073;strokeColor=none;" parent="1" vertex="1">
          <mxGeometry x="180" y="40" width="50" height="40" as="geometry" />
        </mxCell>
        <mxCell id="SpQzwTgwdDxSrPTeLPvR-8" style="edgeStyle=none;rounded=0;orthogonalLoop=1;jettySize=auto;html=1;entryX=1.019;entryY=0.691;entryDx=0;entryDy=0;entryPerimeter=0;" edge="1" parent="1" target="SpQzwTgwdDxSrPTeLPvR-1">
          <mxGeometry relative="1" as="geometry">
            <mxPoint x="-137.33333333333348" y="730" as="sourcePoint" />
            <mxPoint x="-249" y="759.1079812206572" as="targetPoint" />
            <Array as="points">
              <mxPoint x="-206" y="850" />
            </Array>
          </mxGeometry>
        </mxCell>
        <mxCell id="Got-eOJTaQWGUMFf_648-4" value="" style="verticalLabelPosition=bottom;sketch=0;html=1;fillColor=#282828;strokeColor=none;verticalAlign=top;pointerEvents=1;align=center;shape=mxgraph.cisco_safe.business_icons.icon26;" parent="1" vertex="1">
          <mxGeometry x="400" y="190" width="50" height="35.5" as="geometry" />
        </mxCell>
        <mxCell id="Got-eOJTaQWGUMFf_648-6" value="" style="verticalLabelPosition=bottom;sketch=0;html=1;fillColor=#282828;strokeColor=none;verticalAlign=top;pointerEvents=1;align=center;shape=mxgraph.cisco_safe.technology_icons.icon27;" parent="1" vertex="1">
          <mxGeometry x="120" y="130" width="50" height="35" as="geometry" />
        </mxCell>
        <mxCell id="Got-eOJTaQWGUMFf_648-7" value="" style="sketch=0;pointerEvents=1;shadow=0;dashed=0;html=1;strokeColor=none;fillColor=#505050;labelPosition=center;verticalLabelPosition=bottom;verticalAlign=top;outlineConnect=0;align=center;shape=mxgraph.office.communications.journaling_rule;" parent="1" vertex="1">
          <mxGeometry x="290" y="70" width="52" height="58" as="geometry" />
        </mxCell>
        <mxCell id="Got-eOJTaQWGUMFf_648-8" value="" style="sketch=0;pointerEvents=1;shadow=0;dashed=0;html=1;strokeColor=none;fillColor=#505050;labelPosition=center;verticalLabelPosition=bottom;verticalAlign=top;outlineConnect=0;align=center;shape=mxgraph.office.communications.journaling_rule;" parent="1" vertex="1">
          <mxGeometry x="238" y="128" width="52" height="58" as="geometry" />
        </mxCell>
        <mxCell id="Got-eOJTaQWGUMFf_648-9" value="" style="sketch=0;pointerEvents=1;shadow=0;dashed=0;html=1;strokeColor=none;fillColor=#505050;labelPosition=center;verticalLabelPosition=bottom;verticalAlign=top;outlineConnect=0;align=center;shape=mxgraph.office.communications.journaling_rule;" parent="1" vertex="1">
          <mxGeometry x="390" y="200" width="52" height="58" as="geometry" />
        </mxCell>
        <mxCell id="Got-eOJTaQWGUMFf_648-10" value="" style="sketch=0;pointerEvents=1;shadow=0;dashed=0;html=1;strokeColor=none;fillColor=#505050;labelPosition=center;verticalLabelPosition=bottom;verticalAlign=top;outlineConnect=0;align=center;shape=mxgraph.office.communications.journaling_rule;" parent="1" vertex="1">
          <mxGeometry x="270" y="60" width="52" height="58" as="geometry" />
        </mxCell>
        <mxCell id="SpQzwTgwdDxSrPTeLPvR-2" style="rounded=0;orthogonalLoop=1;jettySize=auto;html=1;entryX=-0.044;entryY=0.546;entryDx=0;entryDy=0;entryPerimeter=0;" edge="1" parent="1" source="SpQzwTgwdDxSrPTeLPvR-1">
          <mxGeometry relative="1" as="geometry">
            <mxPoint x="-175.89599999999973" y="675.5200000000002" as="targetPoint" />
          </mxGeometry>
        </mxCell>
        <mxCell id="SpQzwTgwdDxSrPTeLPvR-12" style="edgeStyle=none;rounded=0;orthogonalLoop=1;jettySize=auto;html=1;exitX=0;exitY=0.25;exitDx=0;exitDy=0;" edge="1" parent="1" source="SpQzwTgwdDxSrPTeLPvR-1">
          <mxGeometry relative="1" as="geometry">
            <mxPoint x="-642.0000000000002" y="677.8846845049904" as="targetPoint" />
          </mxGeometry>
        </mxCell>
        <mxCell id="SpQzwTgwdDxSrPTeLPvR-1" value="" style="aspect=fixed;perimeter=ellipsePerimeter;html=1;align=center;shadow=0;dashed=0;spacingTop=3;image;image=img/lib/active_directory/windows_server.svg;" vertex="1" parent="1">
          <mxGeometry x="-446" y="690" width="123" height="150" as="geometry" />
        </mxCell>
        <mxCell id="SpQzwTgwdDxSrPTeLPvR-4" value="&lt;font style=&quot;vertical-align: inherit;&quot;&gt;&lt;font style=&quot;vertical-align: inherit;&quot;&gt;&lt;font style=&quot;vertical-align: inherit;&quot;&gt;&lt;font style=&quot;vertical-align: inherit;&quot;&gt;баннер&amp;nbsp;&lt;/font&gt;&lt;/font&gt;&lt;/font&gt;&lt;/font&gt;" style="swimlane;whiteSpace=wrap;html=1;" vertex="1" parent="1">
          <mxGeometry x="-266" y="840" width="381" height="200" as="geometry" />
        </mxCell>
        <mxCell id="SpQzwTgwdDxSrPTeLPvR-6" value="" style="shape=image;verticalLabelPosition=bottom;labelBackgroundColor=default;verticalAlign=top;aspect=fixed;imageAspect=0;image=data:image/png,iVBORw0KGgoAAAANSUhEUgAAAX0AAACTCAYAAABiQMkXAAAAAXNSR0IArs4c6QAAAARnQU1BAACxjwv8YQUAAAAJcEhZcwAADsMAAA7DAcdvqGQAAGtQSURBVHhe7Z0FnFTVF8eP0r10d4N0d5eAgghKGCgICgqYCEgqiCCNiCIKCIIS0gjSJd3d3Q0LLOD83/fM3HUYd2Fm/6Dg3h+8z+6+efPezd+Je985T7gciIWFhYVFpMCTnp8WFhYWFpEAlvQtLCwsIhEs6VtYWFhEIljSt7CwsIhEsKRvYWFhEYlgSd/CwsIiEsGS/r8Mf3bMupx/94M/1/gD7vOg7mVhYfHowa99+pDAzds35dadWxInehx58okn9Rx/37xzU2JFjaXnrt++Lnf+vOP51t2I+mRUvY7rQ+6EeM7ejShPRpGYUWMqEd64fUP+dP3p+cSRTs79o0eJLtGejCZPPPGE5+zfcePGDblz547EiBFDokaN6jkr+kyOGFFiSLQo0TxnA8efTpGCg52Gc4oQO7b7Z6CgfrTVtZBrcjXkqiSKnUjrTdkMTJtzzZWQKxIUI0hiRY/1t2uo09WbV+XqravavvFjxJcYUWPIE86/QHD7z9sSfCtY70X7JoiZQO8T5Yko+jlloe8oJ/3As+kjxoA5Z2Fh8ejDL9Jncvde1lsmbp8oUxtOlUwJMylBjN86XgatGiSfV/5c8iTLI23ntJU/jv6hBH3H5SZ/SINHlE5fWgZUHyDfrPtGvl77tZ6H1CEP83uJtCWkW4VucuzyMemysIscvnRYP4Ok0well7o560qdHHUkVbxUYZIaz9mwYYMcP35c8ufPL2nSpPF8IjJyw0gZvna4tC/dXu8TURw5ItKwoUjKlCKDB4ukSOH5IAAcuXREPpj3gUzdOdXpAZGgmEHyXsn3pHWR1qFC79S1UzLgjwEyYt0ICb4dLMniJJN3ir0jLQu3lNjRYmu7nQ0+Kz9u/lH6rewnZ4LPSKKYiaRxnsbyQakP9Hp/cf3WdZm3b570WdlH1h5fq8Kjauaq0q54OymcqrD2Z98VfWXomqHycemPpUXhFvrsTxd/KrP2zpJOZTtJwzwNVSBbWFg82vDLvQMJXb55WU5eO6kaoTmHFgo5qYbvkPyFGxeUjHImzamaIcIid7LcqsGfu35OrQDuwz1yJMmhBMc16RKkk3gx4uk1t+/c1u9CYrGixZLCqQvrtSevnpSO8ztK/5X95crNK1oGX1y7dk32798vCRMmlNSpU+s5yoOmvPLoStl8erMSaEThGBCycaPIoUMiZ8+6/w4UEGyNH2vI9N3T5Znsz0irIq0kS6Is8smCT6TP8j56DeXtsbiHDF49WOvfolALyRCUQXos6SGdF3bWtqcNJmydoG2SJl4aaV6gueRNnle+Wf+NvD3r7XCtKV/Qb9N2TZO2v7WVc8HnpEneJlI9S3VZcWSFdF/cXTac3KDXUaYTV0+oZYLARwiM3jxahXCVzFUs4VtYPCZ4oD59TPySaUvK4KcHK/FD1sNqDZPyGct7rnAjX4p8MrD6QKmZraZkT5JdNcUGuRt4PnWDe0GKExtMlOmNpsvP9X+WGllryKqjq1Qb9QVEuGfPHokePbqkTZtWXRQQ36mrp+SHjT/I0kNL1RUREeDSuXhRZPlykfbtxbEkPB9EALvO7pKd53dK84LNZUL9CdK3al+ZWH+iCjssKSyegxcOyrcbvpXy6cvLnCZzpF+1fjKs5jCJHz2+zNk7R04Hn5a95/fKp0s+lRJpSsjvL/8ug54eJF/V/EpJeOOpjTJj9wzPE+8NiB5ix23XtXxX+bb2tzKq7ihpW9xttfE8BKdByJ8hal1M2TlFqmWuJi/lfUlSxnXMHgsLi8cCAZE+k9/48SFUo/UDXAD4gRPESOA54wbuGfzMuDC4Jm70uPq7t1+e83GixdHz+P69wTMhdO6bJHYSuXbL7Qf3BVr+gQMHJGGihEr64Le9v0nd8XWl04JOaj1Qjojg/HmRRo1EatbkOSJeSwUBA6uoaKqi8m6Jdz1nWBd4Qq2hJ598Utt0+9ntEi96PHm76NtafywoyBdLCwtowpYJKsxu3LmhAjR29Niq+S85tER+3fmruo/Q3v3B1tNbZeGBhVI2XVl5Ludzeg6tvXS60lI0TVE5c+2MWmeAflhxeIWM2zJOksdJrm6ePMnz6GcWFhaPBwIi/ZDbIUo+aKRoesb0B6njpZZRz45SbdMbqeOnVm12TN0xkixuMvUJ8zuapUGiWImkXYl28tNzP6nmD4wLAwJDq523f56sPrZa0sRPI2nju0ndgGv37t0rUaNFlXTp0t0lUDIlyiTvFn9XGuVppEIjInBuLwkcWfbMMyIjRojzDM8HEQDrFiteX6EuLYC7Z8auGSr4KmWsJLf+vKX1xPVVNkNZuXj9oozeNFp6L+8ttbPVVqG35vgaFXwIwmJpiuni6687fpWui7pKloRZVFAgXPwB6ye0L640b4HLug2W2uHLh+XQxUN6jrLN3DNT/jj2hzyf63kpl6GcnrewsHh8EBDpQzg9l/WUdnPayUe/f6TEbwDRRo8a/W87Y1hwRXPEXaO/O5+HtdMDwuH7kB/Amhi5caTkGJpD8g/PL+/MeUeJDpcP2q03jJYflCBI0qX9i5FrZ68tY58bK13Kd1ESiyiSJhX56SeRsWNFcuVyGu0BOcUgfDTyljNbSv4U+aVXpV4qwM5fP68WEtbJmM1jpM+KPvJ+iffVOmBd5NLNS+qLp824jgVhCP/F3C+qKyh21NjyJz4pP4C1wDqHaXcD+ogD/z2HAWsv7CBCWJwPdkwgCwuLxwoB0RfukR+e/UF9yDMaztBFyIcFyIwdQc0KNJOWhVrKpxU+lV/q/yLNCja7i6AgyX379qlrxFfLf5QBkf68/Wd5acpLUiBlAfXrq4vHqZu6sUKuyQ+bflAN/70S70nbEm1V04boE8dKrD8RglN2TJFPFn0iz+d+Xj6r9Jm6h9DyuZc/YKcOrjWz28qABfYbt26oOw5XE6BPWhdtLU3zN1XrY/KOyeFu0bWwsHg0ERDpQzS4X9gl8lSyp9Sl87CARVAxY0UZVGOQfFntS92umCupo2b7wGj5CRIkkPTp03vORgzsxrl1S+T2bbdL52EBwh+7eaw0n9ZciqQqIjMbzlR/PYu8tHHhlIXl/I3zuoMH1xQaPmspxy8fVxLGRcRPtk3O3jtb6uWsp9tm/3T+scsGwcG+fn+Auyxb4mzqSsOSM8Dls+PsDkkXP52kTeB2pyFI2BZaI0sN3UK79PBS2Xthr35mYWHxeOABOSrcQOtGQzTbMjku3bikbgwD/M0sAnMe9wWaIkTl7ULwFzyPLZpo+RkyZAhTy0eDNdsMeVZwSLCWD63ZFwcPiixdKrJ2rcjVv68Vy5UrIpcuuXfzIBguXxYJCQlMQFD3EetHSIsZLdRnPq7eOHWxlBlZRppOa6qk/1Typ5TUMybMKK8WeFW1fkh4+LrhulMGkucnQpftniz40saHLx6W5YeXKyHXzF7T88R7A+FdIWMFXUfAaoD82dHz277fZMOJDZIqfqq/LYBXzlRZDxaNcU/R5xYWFo8H/CZ9CBUNMvSlKOeH7zncCgv2L5ABKwfoi1VHLh/RbYVoowZorGuPrVU/NVsCuYaXtXAVeEPvex9XTXBwsGr5cePGDVfLZ5fLqI2jdP2BXTAsQrMffu+5v2uov/wi0rixyHvvuffi+2L4cJE+fdy7eRAQ/I6AwDrwF5B3u9/aKbkXSllI2wGNnq2aT/LPqTeLvA1yNdAF1NYzW6uQ6LSwk+w8u1OqZKoiiWMnVoHAovihS4fk5Skv60tvnRd1lhEbRkiZdGV00dcfsIieP3l+FSwDVw2U/n/0l26Lu8lPW37SReLSaUvrdaF97fxE42enD8+Zvmu6bqO1sLB4POAX6TPZ0SrRCnk135xLGjup5E6aO3SbJpr90ctHdcth8rjJJUXcFLrTxOz+AJAb+8y3nN6iGjrX7L+wX8nQgK2faMH3ch+h5UP4AMIPT0Cg4eOmYPETojx7/aysP7leLt686LniLwQFcS8R3uuKHkZUga1bRTZvFseqEEmWTGTTJpHTp92av7/AL86iLVsdeVmMl8bWnlir2j1uFoBm3btKb6mbo65eAxkfvXRUX9LivLkGP36bYm20brzIteXUFnm9wOvyeaXP9Rp/QD/WyVlHd1jxpu+oTaNk7v65us6AWwlXEsCyyJc8X+ibvtShUqZKarnw0pbvmoCFhcWjicc2Ry5a/oIFCyRWrFhSoUIFFSD/RWAZ4f5KGDNhuIKNa/DHQ9ph7YzyFwhk44rz3lJrYWHx38FjS/pnzpzRXTvJHJU7U6aIb8e0sLCwiEx4bEnfwsLCwiJw/Dd9IhYWFhYWYcKSvoWFhUUkgiV9CwsLi0gES/oWFhYWkQiW9C0sLCwiESzpW1hYWEQiWNK3sLCwiESwpG9hYWERiWBJ3yJc8N6efXfPwuK/Bb/fyCUkMiGJSV9IEDMCfhGhkXPEZCe9n8WDBbFwiJl/4foFDUJHcLp/CmTeunDhgsb7SZQokeesO1Q1eXMJU50kThLNohVREMk0ONgd5C52bM/JCICAd3v2uDOceRU1FOQ15lmExo4WTSRlSpEUTlOGE8rIwuI/Db80fQhfc7VuHC0NJzaUp8c+La1mtpIBfwyQtnPayoEL7miXFg8WBD8bv3W8NJ/eXMZsGuM5+88Awl+5cqXs2LHDc8YNCP+rNV/J0DVDNWViRAFRf/65yEsvieza5TkZQRw9KtKsmcicOe77eoOcB4TMfuUVkapVRZ57TqRXL5EtWzwXWFhEMvhF+oRMXnxwsbw/930Jihkk9XLV05R+IzeMlM2nNvudhNsiMCBsSVlI6OR/MlEJWv6u3bvk9u3bkiNHDs9ZdzRPsmVN3z1dDlw8EOEyYVseOSKycaPIunUSZsIaf3HzpsiwYSKrVxOEz31vb4wf7xYICROKNGwoUqqUyIwZIm+84QhVO2wtIiGidHXg+T1chNwO0XytxMn/tva30qpoK6mSuYq6Ho5cOSLP53peXQ+aFcu59sSVExojnxSAEEWsaLE08QbCg6TfmlTb+Unyc9IiHr9yXPZf3K+JtkkuwnnOAb4LuM+Z4DNy8cZFvYbv4f4gMcrBiwc1aQuuJp6DywG3BFmgTl49qdopxMn3yKLF9SRvwVVBjliTTxaSu3jRHWc/atSo4YYyDg+EQCbuPa4u4vXvPrdbk7jwt7f7i3ITg57PaUPqcvTKUc3qhRsHEKeechLvPluibFI2Q1lJHf+v/AK0x/Grx7WOhFPmWkPEhEWmToRbJskK7Uq7kSiFMlIm2g0XTVghlNHy9+zZ4xBlQiV9PIC0I0lvvt/4vRI/eRTKpS8nSeMk9XzLP6CVYzyQkGbJErd7p2lTt4snUGzfLrJ8uUi3bm7BUb26SNGijibjUWUQAGXLiiRwmhShUKeOSO3aIvHiuYUBn0XkuRYWjzP8In3Icd3xdbLsyDJNbkIiDdL5kcEJwiGDEmQFoS44sECzOA1aPUjT6UH+caPFlRTxUqi7YsbuGTJw9UCZs3eOEjXfH7p6qCYK+ePIH5IqXioVGpyDHEmODvlCamTAWn9ivWROmFnXFHaf3y0Ttk3QBCI/bPxBVhxZoURHAhcsEkjq23XfagJy7k09lh1eJv1W9pPvN3yvCcGpD3HoAWS3cOFCJXwIL0oU/5KLG6w+ulp6LuspyeMk17r3XNpTJm2fpMKmYMqCSsQIRtIQ4iLptayXthfpEmmzPef2SLUs1ZRkj105ppYV9SXpTJHURXTtxODUtVPqXlt2aJkKRjJw4XIhOQ3XpU+QXn//ZMEnMmvvLFl8aLHef+3xtTJ682h9LqRfKFUhzx3dQMvfvHmzXL58WQoXLiyxY8fW1JK0ffv57TXFJYKCfooI6X/xhUjHjiI7d7pTT5J2MqKk/+KLIl99JVKxosjevW73jTfpg+7dRYoVE3ntNfffdGnGjCJfful2/Tz/vPu8hUVkgV/unWhPRpNqmatJxqCM0nVRV+kwv4OmQIQ0Pyn7iSbORjNdeWSlpgJcdWyVJjEnExSpEdv+1lbdQxAeID8uGaMg7O82fCf7LuxTIs+WJJtaDAgCrIo5++bIuevnlPw3nNyg5I2mmjRuUhUYX674UoasGqJCgUxOXDfwj4EyfO1w1UwBz9x6equWF8HCz3gx4knWxFklc6LMd2m6kK2f69phAu197r65MmbzGBU4aMNYHR/9/pEKLcCi7Fsz39JryJ5FNi8E4ew9s2XF0RV6jQFCCnL/ff/vqp17g8X05UeWy8QdE9UKg6wzJcyk7dxvRT93PZz/uN62ndmmwg7rac/5PbLw4EJtP9Mf3rjkMPG5c+ckKChIEidO7DnraMdOmxVPU1zal24vVTM57BpBUKz8+UXatRP5f9MgJEki8uyzIj/84FiEboPwb4DkMd5MSkuef/asO7cxriULi0gHhxz8wq07t1yLDixy1ZtQz1VweEFX4t6JXUWGF3HN2j1LP3O0c9dLk19ypfoylWvwqsGuXWd3ubac2uJyNHZXkt5J9HuOJaD3cqwGV6nvSrmS90nu6rygs8shQpdD2C5H83Q55OU6eumoq83sNq5Cwwu5pu2a5rp847Kr88LOrswDM7scDV2vG7FuhCt9//SuF355wbXwwEJ93oL9C1y1x9V2ZRqYyfXLtl/0WaDl9JauaN2juaqOrupyBFPoc/j3IDFh6wRXgl4JXCW+LeE6F3xOz83ZM8cVo0cMbROeO2XHFJd0FVerGa30c8qw//x+V5RuUVzFRxTXcwaOVu1yBIK20687fvWcdcPR2l3Fvi2mn/Vd3lfP7T6321VnfB1XxVEVXcEhwXrufPB5lyMEXHmH5XW999t7rqa/NtW2n7t3rn7ujTt37rhWr17tmjx5suv06dOes3fjys0rrlYzW7lenPiia9vpbZ6zgcNpflfFiiqZXEuWeE7+H4gXz+UaMMDlun3bc8IBzyhTxuWKFs3l+tVpvq1bXa7ly12uDz5wuZ54wuVKlcp9jYVFZIJ/u3ecuYlmmT9lfhn//HgZ+cxIaZC7gfqt35/3vubAxbWz5tgaNf+XHFoinRZ0ku6Lu6sWGzNaTM2de/CCW9s1yJ0st7xW8DV1xZBc3STexn2EWweteNPJTWoJ7DizQ68nmThWBf5rtGBcFrhKeN6wtcNCfdj4/9H8DfCpv5L/FSmWuljoc0KTvD9gNMrbSK0ggKuHZ7GGAWgbntulfBf9G5i8wxFB+qD00qJwC/0dl1uWRFl07YT+AAljJZQKGStovmHcQVgUT2d9WtdkfIGWf9ZRg9Hyk7L/8TGH0+wycKBInjwiTZqIvP++yDvviKxa5c6BnDy550ILi0gEv0gfn+6MXTPk560/K4HlS5FPvqjyhbxe8HU5fe20+osNcBncvnNbiY1/EFHx1MWlZNqS6q7wRlCMIPU9+4KFTRKFQ2C4ZhwNXraf2a4uHNxGPINyAOOiMM9j0bNKpiqSKm6qu57HGgC+e/O9h4nsibOHLg77AlcZ5cTFZRCWm8UfILxYiKaNgWkDbyD4cDHhNqMNWAwm3y6C0xu4h0g/ef36dcmdO7fnbMSBr56dNb5bKAMFbhjuw/0iAlxJ33wjUq+ee0EX/37Pno6gdeRs3bp2r75F5INfpM9uGnzvXRZ3kRWHV+iOEXaCYAFAPJAKxFMsTTFJGjup7u75uvbXMuKZEfJ55c/l7WJvy8elP5ankj2lGihaL9oo92VnjdFKvYGPv2jqorqQycIjz8mbLK+SKVo76wsIDBaRP6v4mYx4doQMqTlE3i/5vvSo2ENqZqupC5Xngs+pXxvyYwcP1gM7X8ICxHft2jWHaEK0bhHFvZK0I5D4nEXcXWd36doDi+S+oH1015EjHLTszk/WN/wFggSrC0vox80/yrz986RujrqSLn46GbdlnPr46UcDtHzyDqPlk3c4LNBPlIn2ZJcQ/WgSqXsDgkabnjLFvVvHFzduiJxzqmL87BcuuP3sYRH7vHkikyeLbNrkFgC+YJvm6dNYo+6Xr/jdG5zn5awBA0RGjHBr+uzcYQePWdy1sIhM8G/LpqMVsujKYiT78v90/rELBPJgpwgkjxsDTRKtf/6B+arts4A4ecdk+WnrT+qawW3DYu/E7RNl46mNKjggNAiWRUhvoMHiopm5Z6a6cipnrCwv5XtJdwmhzfIsSAcy4+UwyH3J4SXq6oEwC6QsoG4h3EsshLJ9FFAXdveYrZHeuOKwxsaNG3XXTty4ce9J3mGB+s7YM0NeyP2Cul0QVDyX9xkQTmXTl9Vns3uHerGYisuLbZAsAqOFNyvYTNuD+lCX1cdW63251+WQyyoIAXVnh1DUKFHl1fyv6jlImQVydv7Uz1VfF257L+8t47aOk5RxU0rdnHXV+pm8c7JaTukSpJPsSbKrsOMlLEifHTvU3Rf009JDS3U30qqjq9S1xvPYleW9qwhA6h06uF+CKl5cJFcuzwce8GLU9Okiv//uXmSNGVPk+HGRLFnEebbnIg/YZsn2TjRz9tj7LtgOGSKycqV7+yeLttynXLm/NPjz50Vq1nR/n62iEP6kSSL167sPq+lbRDb4RfqQwsFLB5WYk8VNplrizrM71f3yWoHXpFS6UrotMWW8lKp9swceUt90apOE/Bmiuz7KZyivFsGa42v0wN1AGAf2i/O9vMnzep7mBm4YdvHg6mFraK3stZQ4DfiucQ2x333diXX6XAiocqbKujuHnSqLDi1SrTdDUAZ1U0GeCCBeLvMFpL/FYSSzcyXQLZvUBTJmpxPtxLNYC0FoQfhYOvjvK2WsJCeundDtpWjvbBtFiFJ2XGaA8wgDhBRWDWXHQsEfD9DiIXfaoFKmSnqOa/he7Kix9Xmso8zdP1d3V9HGWEls72THUtwYcbUNECK8m7Br1y6JEyeO5MEBHgYQ9OwWQqhj1eEi4r0Iys4uLW/g0jl40E3m1aqJpEvn+cCDbdtEFiwQ53ki2Zyvslef7ZOlS7tfovLG1q1u3zuf4arBF+8NXswixELmzG7SP+nI9hdewNpyf46lQYgGdupwoPlXqSLSt6/7eguLyAa/Y+8YoPHhx0dLR5uF7H2Bpm2uYT93WC8APUjg+sAqgIwgsrDK9KgAEp++a7oUTl1YXWG0J+8X1BpXS990/qneT54r/xnQ/Zs2bVJ/fmmHWZP/B1c3GeEIA9xIWbO64+9YWERWBEz6Fv8f8InnGJJDGuZpKPmS51N3y5SdU9T3PqzmMH0565/EnTt3VMvHyinGKqeFhcV/Gpb0/2Hg/um8sLOuQ+AXZ30CXz6uq/dKvue5ysLCwuLhwJL+vwR2zvCWMaTPorPZdmlhYWHxMGFJ38LCwiISIbA9iRYWFhYWjzUs6VtYWFhEIljSt7CwsIhEsKRvYWFhEYlgSd/CwsIiEsGSvoWFhUUkgiV9CwsLi0gEv/bpEx+GZOYmBaE8IZokhCBmBPDyjeF+PxCEjMQrBFMjaNu/DQKyEb+H2P1EtyTyJMHSiJNDkDmTQ9cf8B3uQ/sQ9I37PCxQbl7y4nn0DbF8CCZHMDpvEJyNgHm7z+7WuETUj74LtGyEquY+hIRm2BBsLbz4S/cC3yVIHuGZ6f//JzYTQeZI3kNEUdqcXMKJYyXWgH0GlHvrma2y99xeTehTMEVBjQ7qO25pJ9qSQH8Ex/O+B3GkiEzqC9qQeE+0g7+g3xhnO87u0J9EQKUtfSO/Mu+IxEp7k0eZwHuEHA+0vUgrcfWgyJVDztR1qpQgu0jMZE7ZvbqNa67sd67zXBM/h0jsFM7vAQalg01CLolc3Or0zRXnOUlFEuYWiRJOOss/Q9zlIv1EvAikz6RviVBr+ob2IbAgwQkJNEhQwyOXjki86PE0oCEBD8nBTbBCov4SG4w4YZyjvX3B9QQ1DCsq7+MKv0ifuPejNoySSTsm6SDnCIoVpFmoiNJIHP1AiH/v+b0aNpiMWZ3Ldfac/fdA8nZCMBPymciUpdOVluhPRtfIkh3KdAhIMBFb582Zb2rkSepG7P+HAQYoREesfJLM7zu/T4mndrbamhWLROzgbPBZTYI+a88sjY5KpNMy6cto7B8icfrbbxAieX/HbhmrIZZpGxKjk0GNMUCoa3/BhPxk4Sdy9NJR+aTcJyqEIgKImLDdYzePlZ3ndmrkz+dzPS8VMlTQbGEAUiBpPqGsCVPNm8/PZH9GI7HSTt71hzxaTG+hZPB1ra/vEmYQb9s5bZWwvb+D0kPUVMKL+wuywJHv+fd9vyupU/8aWWpIjaw19Hfuj2JECGvmHNnWCGNNnxLVlnb3l/gdmSgnl4ic3+i0+zXnhDPboweJJC0qkii/SFSHjJ3pLccJc73N+f2GQwqOLhDV6c7EzufJijuE7BPZNFw49z6/ReTUMme8nHcLkiecJoznyMNUVZy28onl57rtPHOH07bfuQVM3vaeD/wEuRx4q/2Xbb9oOHfajbkLUSeIkUCaF2qu/TZi/QhVcsicB8n/tOUnjXfFOGicp7FM3z1dft72s45x+hdKNAKfaMBvFXkrNKT5fwF+qXqEVt51bpfGq4fskaAQ/6BVg6TX0l5KOIGAkLxoZ6RC/LdBwDOIg6TppBZk4tHxs/fNVrIkEXsgQHsl8fj64+uVcB4WLt64KKM2jpI+K/ooSTGACZ/81dqvNG0k5eb5G09ulM+WfqYabNXMVVVAk5im/8r+Gv/HH9AeJLsn/SV9Vi5DOamYsaKe67G4h+YHCARMKkJJLz28VBPbRBTkKWgzp43mBaiXs56G7+67oq98PP9jLTMgUX3r2a018cuzOZ5VgTd+63hNr4mWbYAg2n7anYyfENK+Wh/lJKw0GiHC1Rw829eyuhdQKr5d/60Ka/qrVrZaOpeGrB6i5bp4/aJeB+HTtiTYKZG2hI5LLBDiNWHd+IvTK0SOTBeJ5pB4tqaOJtzETcb7fnS0eqf7+f3kIpHDU93af7bmIllfdzRzh+j3jnIE6zHnGj+zn/3pkPiur53vOJp7hroiT70rkryUI0wXiByc5LnICzedqnL+yh6RC46wCBSETv9i+RdK2lh4JdOVVAUOIU9YdwQnFjC8Re4JxilcNWvvLJm9d7ZyGm3Jd7ac3qK5KU4Hn1blgPHDHCNkO4rTfwkB2fdoSd3Kd1MtaMjTQ+SlvC/pBCGNImAy09BI1/n758vCAwuVWEzaQhNymWQsXAcxEZefA40HSWvAvZiUEAtJUNCOwsrSBMh2RW5XUv0FipDbIRraGIIk69bQp4fKoBqDpECKAqqlG62O8kDo205v08QtCAQmMHUyYECRuIX6YlYyqKgb5wwJPQhASLQh2czIJTyg+gDNGta+VHtJED2BavQL9y+U4NvuvqCMZC77quZX0r9afyVIyrX88HLPHe8NEuJgTaBNk4+XaKC007vF31USoi3IJQCMS2LRwUU6echURjvhPqMN+Z370P8QLfUwYwBiDgSfLvlUXTkDawzU8Uj9sD55LqDNOy3spL/3rdJXy0z9cyTOoe6AMZvHaBlIDIQFg7Dk7/CAmw+tnvsMrjFYn9m/en+1mvwFZSO0NuXsV62fDK05VN4o9Ia6nRBQ5JrAWkTDZwx9WOpD+aLyF5qelOufy/mcWsjeQFMPdsgZt4o3QTvNLQd+cWv0GV8QiZNWJH5mNxFf3uUIhJVO3wY7lu44kZSOYZSxgVPHlO4jR0vHIkjgXONo7b4y5sZptyvIM61DccPhxvOOHpfnI5Gg3I6gied+Vro6Iocm3102nnvKsUCCj4qkru45GQCw8hi/KDUv53tZhtQYov1Clr5U8VN5rvoLBy4dUBcf5M5Y80XmoMzSrng7eTrL06rdtyjUQpMO4Rb6ryHCDmfM+SZ5m6gZNf/gfCVNJCYaS89lPaXDgg7ScUFHzdz0645flbAxUREEaGgkPIEUey7tqQcmOgIBQK5Mjv5/9JcuC7tIx/kdVVtlYuIa8sXBgwdl2bJlcpy0SQECM45JBEFQNuoQN1pcrdsr+V4JTbYCMYxcP1I+XfqplqfD/A7SZ3kfmbJjihIYGLp6qNb/xq0beh+0Tur29dqvH6jWz71OXT2lmgjkgcl69tpZLT/J6iFdtB8EFmYt5mn1rNWV/HFh0IYItHgx/BvQ9AtHqbSlNCEObYZ2SmIb/iZblxEuCGj6HE2626Ju8u26b9WqYHLyOWY02hlkj/aMVmbGAO6qQIC5/mHJD9XFYoCLxyOnFVg4uZPm1tzKPH/u3rnqz0XADFszTK1OrFX6FPcVOYzDA2OE7w5fN1zdk/yct2+e3tdfoDVC5ghrktWTOW3tsbXal7gqsIAY+/zMliSbClOE0eBVg9UFSb8jPL1x84xDqr862vJWp4xeRbnhnEcQ4Ct3hrSCa1SrT+GUZa1j4Vx2rnE07rgZ/+7GQVgc+80tVLyBK2jnsL+fRzggOGJ4GT4QfYijD0Tz8kZRxkuO0Dk8TST98yKxws7OeU8wjlcfX62WFomFGAOMScKVv1noTXVdGsJmHjBn8O3TrvQBbk4D1u0Kpir4N4uNNRTcOmElXHqcEWHSpyHxK7IAxWSF+EhkgtZHqkPIKE/yPDrpui/pro1Np+Bv43v4SzkQHhyxo8fWz5lYaPWfL/tctR0WX3BJMCkG/DFATWDCE3uDDFcxYsTQn4EC8quTo44ki51MJxfPhaQzJ8osbYu3DU0FyEL24sPurFGY2wwGtF/CJJvctWSj4nNIkbpBqtQNIWIshgeB286sgay4f6GUhXQQj940Wv3EZCCDFPicspAruFWRVioUELYQMNokWgzJ6v0Bmb84cibJedf6BpMK7RetmQmFr7/roq5KWlybMWFGTc1IuxoLiMnJ91hsIx0lY8GMgSgBrhqi/bYu1jp0Ai86sEjdMyzUAixHCBlSwAJBw+6xpIeOS75D+knOk5mtwVMNVLtjfIYH7gcxY2EhVBkrCDeI35eIwwLEg0KDW4f2OXTpkPqb155YK2niuccZ1i+L3HyGC3Tqzqm64IvljLsHIYrCdBecZmPpyFdeXd7tzFNnhkP4/LzoEO0BxyiP5Wjy6euJXHd0LIwryP4ORpaPGwdhgM+dxVZvPOk0UVRI3GdIx00nkquN5w8HEP4lR6k+Mst53nPuMgAEES6noFyOJeDfEPwbUBhQbpgDaOa0P5saGGOs19TMWjNUGYBXsAgZoyhG8BMuUQNcla8XeF0Xgb3B2smbRd5UjvsvIcKkD5ik8WPG18HMrhW0F9w/7xR7R6pnqS6l0pTSBkM7wX/LxIZgPyr1kTZw/uT51UTmaFOsjcaVxyLAPcFRMk1JNX2ZjI3yNNIVdExg37WAHDlySI0aNSRDhgyeM4GBMr1b4l1pkKuBbDm1RT5Z9Ilqqfj9TPJw/NgflfxIy0Jyc3zD+HSZnFzDoOteobv0qNBDiZBJ3a9qP61bl/JdlOQeFHgWbgi0UoTk6I0O4TsaNIuqEDwCh4VWbzBBvlv/nUzcMVGJjh0JqhX7AUzp4JBg9SlzGCDcOLDgOCgDGn/T/E3V5YSbDGuJvMAGbxZ+UwZWHyjZE2eXRDETyQclPwgdA1glEcVve3/TxWHGCO2NkGVMAkhh2q5p0m1xN1UgelXqpRMfQBp9q/ZVt0/jvI3DFc7cl8Vh+v2Tsp9Iz0o9peFTDdWiw0fv7ZoMD7Q7Qoh0ligu9Meq46vkhadeUCFMmbiGnTr0L/MF19Hg6oP1eflT5Jcpu6aoReJtOeKOwQ/P4qy3tn7r6l/CAHfMwQlul03G+o6l7mj/ED0umiRFRE4uFgk+4ZTR0cI5hyZ+ZZ8jFFj89REGGRyBUaCrexE4PED4lx2hw7pAgmwO6dd1n+eZJxa5rZAsrzpjyHtaBOABpR0RoIx1BDh9jbLx5cov1QpDOfTebYXyxvW4F7MmyqqC3oDxwU47X8uXccs4pR/+S/i/SB+pis8WIkBjPn/jvCw7sky+XPGlakAs/DEZuY5cuf4ADfXolaO6wIL7Z9Af7sViNB7IFbfA7vPOaHpAUA3N+V8/d33VHLtW6KrEhDuHelAWgDWDOYnLCbfVx79/rFYM9WIwQb7/FNBcokeNrtoOREvSesqPG4dtsEwIBDJ1Y+cVVhgaepvibeTtom/rYIaoWI/xB0wGDlwi1NWA+3PgHqP/ISuIG4GHBk85ITSIHfcKE/RhAELHPYNgwy+LlgfMmgzaHRYIrigIn80IxiVDO3Hd/YArBoHepVwXVRKw9FjTypssr1qhWA33A4Kf/sE18eOWH+WPY39oEn2UDRQF5gnlYT5xLbmPsVJQrFioRPFAAKOxGoF2L0R3uArf+eU9bt8+GnrGFx1NP4WjbTvFxeUC6ULiNAeLqvvGuI9jc51+d8iaLZfswAkESvh7RXaPdOrsNC3aP/59pppDEbLHOY+L59hs51nj3GsL10+6rZCLf98VGyZQeGgz+pExrrKaw3nG9rPb1UsAVxhA9GzDzZUsl/5kbEZWRLjmaCS4FSBmNHRcDhAQfm4IkAH7TI5nJG+KuxOee4Pr+IfWgvDAb8zfTFQGPUSTNG5SPVicYRHtpXwv6ULcgwLmNNovpv9VRzUiqTnWCqYdZjZCCOvjm/XfaN2YkOyCYUENIo0azoygHgZMUu7zoKAWlqN9sNANcbBNEQ2fsqFxQyyYrwgFLKPJOyYrMWMtdSzbUYkGiwb3lD/AKuBgERtN3oD+wueMHzVDwrC1dPykCFE0bF/SZwwZcC/q463B3g+0MdtsWV+5FHJJ3ivxnvpy8dUD2oFxNHXXVCV8tGV2aPEMlAqI3B8LDEGHyxFFwFvrwxWUKHYiLQeEfT9ANGiluApRIiB7+gI3HJYCn9FeaeOn1f570vnnbXnQv8aK8x5f4QFfPuSqi6jOz0wO4cfxrHFe3OL24ztGh8TL7FjLb7l/v+5o+8HH3ecQCsnLOOMtfI/X3+EUC6tiz3cOBzvsooTv3OfgFHcZuFfSYm4XE+8EXDsscvOso0A6usQ1R79ijcEfYKXic0fgMr9oO/ihR8UeUilDJfXDs9ZlwO/P5XpOmhVopqQfmREh0mey8nLV9xu/VzKDBPnJvmN8Z53KdJLelXtL66KtdQD7gskCCfEdOowJz+RFY2VCsjhDp7IvmV0nmN6Y1GhY9XPVV43nQYFdJfhJuy7uqgtqaA2Uge1bkAaTDiLFb8ukozx9qvRRkuWlGl+NAROd77C+weSEMFjQ/X7D93eR3P8DiIpn8y4A7Wj2JqPZoPWmi59OtV20QfzCvZb10n3q1Iu60N7UzXsB9F7AMkDoYj6zUIughKSw4ligRQtFEPNyFL5/LAjqD3Bj4NfHDWJg3EIsaBqNe8ymMbrAixbsLzDh2//eXl0hWBNvFX1L+6ndb+1CSbFEmhL6O3v3IVT6l3ELeTYv2NwvjQ9rhu2BWHjjtowLdS2wCwQfPxpnfNRqP4A/n7UOBA5rCyg2bC9ccXSFLjgXTlVYiqQqoq4cttYiaBg3uEhxV7DbjD6n/+4HNPqYyR0Sd7ToNDUcwk/nnHRkCC9NnV3j3ofPVk5gduzk7eA+kpVwL+Kmqua2EPyC0+RXHRLf/a3+KrnbOmVwns/7ATuHuq2JmElE8nf+68j7sUja2o4AcnSGp95zBEJx963uB4QibcVOJ9ZxGGeMd7a6/rbvN50faPcGtBcKHYv/9EF4YKyYf/9VROnqwPN7uGCQs0CLLxG3AhN92u5p+pIDW5yYbPgpN53epPtamUhMBl6YQNPELYA5zD5qwOfsn+Xzk1dO6nfwVaLZkBgc85sdJpAH16Fhch8sCQjP7CAxOHz4sOzYsUMXcuPFC2yLFYKHPbxMajRjyInn8vJG4ZSF1dfKDiXI7vDlwzoBmYjUH/fOyWsnpVnBZuoXpEwIi21ntmmd0Mi5Fy4hXB76MpBXuS9dviR/rPxD0qVPd9f5+4FrjUuCrZGsK+CrhPAhd/zAvMQDqTN4WQRkexsuCK6nLpAO1yBg7weexxjYeGqj1o0+YTEY0oWAuA8vFdE2bImDxLiG9qHfWBhnvce8eMT92O/OGEHjhjyHrBmiz2AtCG3cHzT4pYEuEKPFIQApE/Xbc2GPumF4Fp8hnDD5EVYsNrMAS19wDYIcsmDbLooHa0+0GecRjqxJQRi0N305e89sLTNuTKxDFvF5CYjx7U8fsqhPP3Av+oy+w9WDJcHWQ9w5CFnKxJoSRI+Lkd/pN4RBo6caqXVtcOOcyImFDmE5pBqdzUtecowiobnfcYgXnePKXofM5zl/33STLYLhT0fLPjTV+WyP2+1zdrXbvcMCcPpnnZ+8kO5VNfz/7L1nIdbbeMPY2fql891ZjqJQ1tHgzzsWxTa3VXFug/sdAe/FZoTPkWnOZ+vc1gEvjfGcmH+528MF/cM2V6xx+hyvw/qT69WqZRtx0wJN1bqEO+AZBCzeB2C+w5ocFj3zhMXymbtnypw9c1ShZSzDNSixCPX/EvwifYBfmMUsNCW045hRYqopDeGZiZE8TnL9nAY8fvW4/s01bD1jpwgTEzCBWEhBW8LM5YUIOghNHt8v4QTwDUMCbJGDSNAscyTNodsG0ZS8J9iJEyf0SJgwoQQF3b2H+X6gcykz+/LpfAgL8xstomXhlrqQw84itFgGGURGeRkMaNOUhcGEYKBMDBTaA8EG8VM/XqxhodjbNYD2uPKPlbJk8RIpV7acX4ThDTT7DAncLhXKD4EiZOrlqqcLjJi3lAFShiC4hrIzOdAo2a2CheYPIE9MaQiUdRUEMjtI6E/WEUqlK6XPwt2FNs1YwL+OgMDtkS9FPt0hgXZGPTloI9wakBr79tFu3y35rt7TH5cLgDTZrZQuKJ0KbFxNPJ97QZ5abqd/uB9rDCuPrFQhzY4mNgiYhWNInDFGebEuGYMICMZ44dSF9RrGAPUz11I/SAPXGtqjv2VmDNAOjDUEBveij+gPxlOyuO5dJSgR7CijvLjizBhlvjE2aW8DdsPwxi2kGdvRrPHTG8TP4iZjfOY3HeGA+wYBwG4awjFA2iy3QfTs9WcP/vVTzhcdAZG9udunDxF746xD0qwTJCt1N4mjHOOfZ6vnk07xIHUOXDcs5iYreXfZWCQ+41zP4jPvEPD9GI4lEPvv2+zDBHOQ/oWbsHJR2AivgdLDy4rMEdoN1w/8Yt785hxv3CNA4RQECFtnma/Mcfz+nGN8sp3zv7aQ63eOXDQPSBgwmWgU34GOhnT15lXVmnFzMEmY4JjfmNO+Jim+ciYP96ZxmZje4HtohAx8BAHkxXN9cefOHX1rGE2fbYCBgOrzfMppzHh+smXTV8JDLHvO7VGChzBM3XTB0PndG5yHZGmjsBaOQkJCpE+fPlKuXDkpXbq052zgQGhB5AcuHFAyYRL4gn65fOOyul7oB3ZO+eva8QULicTfob0hvbAmBHVnEkJq7JqAwHz9+cC0N9aWEQKBAAsyvOHr23coGLyRCXmz+OrdX7QPZTbj24A+813kZcwi9LgWAeU7Zv0F/YZCwPhGmHL4jiGAtcEcQTDgKoXIfIEGT9GZjt6k6g0WdIm/wxIUWytZYPUFFgGEHyeNQ76Otu0zZEPhyD0VJLh9fIsMwYcJ5zrftQG67k/vTU/ONZQ/jKFyT9AnKCGQv+8b0vQTfevNP2ZNh/5lQZh25zoO+sWA73D4zt3HHX6TvsWDBW8QDxo0SLp06aLCysLCwuKfwH9LhD1GQNOvXLmyJXwLC4t/FFbT/5dAvKCYMWNa0rewsPhHYUnfwsLCIhLBuncsLCwsIhEs6VtYWFhEIljSt7CwsIhEsKRvYWFhEYlgSd/CwsIiEsGSvoWFhUUkgiV9CwsLi0iEgPbpE5eCOCDrj6/XSJikRCQULvFw/InWGAgIikTYVOJhELvFNwbKgwbxaziIFRNoDBgDYs0Txycs0EYEniNu0eMKgq0RwZDAe8RCetggGiKB9mg3gmb5i3nz5kmVKlX0dyImEjyNIGr3iqFCvxFXiYBbvmnzAoEJF85cYcwydn0zMv2TICgdMefJh0A6z8dp/DHeKD/BA5PGebjjjVg8RPwlLg9RTv2JTUXZiK/F+CqdtrQGe/O3fYn3RCA98pEQzJHIwYSTDyv+0oOG36RPwCpiiRPelXClTHyiGTJZCD72Xsn3PFc+GBCI6pftv+iAJeUewb0eJsjMRbINUj0SfS8iaDG9hQaHc/rzb2DyD6s17LEO3rTu+Dr5aetPGumUkNMPG2/PflsOXzys7UZAMn9w69Yt6dChg3zxxRc6gXov660Zz8Y+N/aeigOBzVrPaq2B/z6v/LnnbOAwKftIjs+9SMFIVMx/CwNXDdTUo6QoJYLo4zL+oCUi3pIXm+i7HA8TxOMnST/5JohSS/rE8EDk2EnbJ2kSIqLEkhdicI3BGlHYn/ZFuSQ38sqjKzUyKMEpC6QsILWz1daY/76BKR80/BoBaNuEpe2zoo9GTyR0KUkpiEEOMZPs4UGDaI4bT2yUVcdWqSR92CAuOwk4sC4iCnIO0BaEEiZeN7HZybK/98JejekdgFH1SAJiJB49USb/CdCG5C1gIvqLWbNmSdmyZZXw0aZIjEOcdMbwvUCExhm7Z2j9/h+QC4A8DFh2iw8t1jb7N0HuC3IsUI7HafzRd8zFefvn3ZWA52EBpZa5S86Qizcves6GDTwdZGcj7DvhyUmbSX4Kf4HA6Leyn0brRcDUzVFXuYfE94Rtp+4PE36RPq4Wsg2dDz6viSfeL/m+Zioi3jwpBr2BWUtIXbQLhAK/e4PGZQAykZGQxBNfe3xt6MTm+/xO5iVC55IpCMlIUg5+8n1vYGngVoEg1B3glNUAU40Y6yarDgKLZCJ0lgmhSthV0vRhSiLBuZZncVAOc52/IIcAeWgJuUvYYRK+k8HHmH3kIuDe3vdlMtImhiAoN9dQLsqw5NASHZBhTVrMUkImkygFczE8crt9+7ZcvnxZrl+/7jnjP3gu7UNb8jyEsGkj6kN5vcG19Onig4s145N3uUmLab5LfU2aTHOO/oCAOWfqwlgwn98rLSFa/pIlS6RixYqeM3eDELwIX5LgmDLRD5RRhb1ziuebZzHezDW4begPyos2T71PXz2tmcm4rwGuobeLva3JYO4Hgu5duXJFf0YU1AO3FGOEUM1YxtTHd54A+g3lDUs9rETu1Bmhh/LCPbzHqHe/aZ86/+inJQeX6MFcNWAOrj66WhPo0NZhjUnOHbhwQJ/FNbS7AWOM/iDnNmOLtjfPpt31GqeviVR76NChMI8zZ87omKdc3MtbcaTu9C33pY6Gb2gzyk4/8yy+591OcAjfY66h+JRJV0Ya52msaUhxC/vrmkGQYRG0KtpKuZSjSqYqsvn0ZrVsvdv9YcAv9w4VzTssr8bHX/jKwtA4+vhLn//5eTVfMcGJN4+bhAGI5kzF+A7ugBefelFjU+MiQIAwORg0mN50OCkQyRlKKjOkHtfgL6MjMEtxJ7FugFTkeRQbYkGLo7EoI34/8rVyDZly6LyxW8Zqp5JgBAHDxCAuebNCzXRNgoQpozaNUi2P5C+k1zPp1MiDS2f46+N/ceKLEi96POlfvb9kG5xNtb1tb22Tz5Z+pgP8x3o/qvWCyf1y3pelcubK+j0EzXu/vacpCT+r+JnW5d3f3tXvc2BCEh+etIi4usgrQP3JukSqRywJ6oGWmT95fk1YUiFjBb23wbFjx2T58uWSJk0aKVmypOesf6B/yEhEnmAmKP2Ajxww8ElYgfuKwUo2KVyAxMlnwpHoBTdgnZx1dGLg+kD7BKQYJCa9yVoGyE+McOZ59B0k9mz2Z0P94gOqDdAEPGFhxowZmlvhmWeeCdX0G0xoINP2TJO1zddqBi9cBrRT2XRldbLx3A/nfahtTuYxYrGTvQ0wTkiGDmFM2TFFrU7i2hOXH9cNAog1LpKfoAB5x2v/cfOP2s+fVvxUE7qEBbK9bdu2TfLkySPZs7sTfAQC1g5o74UHF6qGSFujaKBMkaqUpCuvTXtN05B+WPJDPU/Z8SGjoWKxU1+EBhY7yhNjCkKmfiSooV6MfzRT+p46M8ZJHAT5kXgGhWbw04M1Oc+vO36VRYcWaTY05h33z5k0p1TOWFnblT5BWH615it3siVnPtKmzPHa2WvrWKH/eR7jHsWRscY9iH1PMpQWhVrI1atXZefOnTquw0KKlCkkd+7csvn8Zvll2y+a6IeENwAFivHFPetkr6MkTFY+tHxIHw5hjKWIk0Ka5G2iljtAWNKWcAX1g4eYC4w1EvLjFvbHvYMbkcTt454bJ6XTl9a5/PrU12XW3lmytOnS0CRMDwv3vTMFQrpCTFkSZ7krcUqSOEl0kuK3hJzR7MgHC7lWzlRZSXX32d3agaQkhBRIdgDJMikw22g4EkOMXD9SBy+VZVKaBB1ozGkTpFXhwSQ0SSsgipEbRmrjMWjQrBiMpLwbuXGk3ptBjgDCf4arBb8wwgBf2uiNo7UsPBsyYrEIocQ1PIuDARtI49PxLYu0/JvvGE2gbfG2ei/KOGbzGBm6Zqh+RpugNYzbOk4uXr+okyI4JFjbBxIiOxCp/UiQQjsOXzdcv4cmPGDlAL2OFHwQC4t1DF7IGTLyRvTo0SVJkiQBp5MEDGomQaq4qTSbFGUybUS5mIwAzQ5SJ4sXhAGxYFUNWT1EFh5YqC47cpdCtEwcrEDamH5nEmp2MqftMHtJBoPAA0ws8zzSUYYFtLqlS5dKhQoV/qZxQWIIXsqKEEfofLX2K53gjGcIjvFG//B88yyzOQHlBEKYvnu6KhKQEus/zAnGEOe5JlDEihVLEidOrD8DBeOGsY/LlfpBqigGs/bMktGbRusiozcQDggjlIH9F/fLgFUDdI5wHxbJyRpFH9NnZBZjTOJPRxBA9PQbiYVIPcnaHmslPJdk5JAnYxAOoJ0R+qQhRBkgfzLrc0aTJ5kP9/1uw3fazwhM/OekXh28arAKAc0KF5RBlRvmJHOT/kBRxJIG0aJFkxQpUkjWrFnDPFKlTCXRo0VXZYvUp0bRALQN7YQCivaufOPMHRQLxqDhG8aEdzIeFnfhIJLhM25QdMxY4Xv+4qV8L+nCL33wwdwPVMFDeMIf1PthEj64b44aSAiNjYnkWzH+fjqbW4thFw8SFenes1JP1TYZBHP3zpVuS7opGT2dxX0tA4DJ/mbhN3XA0Cl0AEROh7OSzYDAnXTGMbvQiklhhrYOESCIIPHfD/wuxVMXl9fyv6YDBM0Hk42BiQZqFtAwvxmckC/lww3EIMBMRXPgPKYcwop0g5QdMBkCWVThXmHBO/t+hoQZtGyUH6KAMMdtHqdtSaJuA9qbOrUr0U6JiMkH2SAIaDd+n7B9grqOyFGLTxFBwCSGkNDc3ivx1+I65FKqVKkIhXJm4pVJX0bbFg2HBas2xdvoZ5SfPoEASEhNLto3C70pDXI3UA0xW8Js8tmyz3SS506WW60wtHsWaSnv2hNr9b6kXSTZPDsn2BlEajuEOteQ75SJBcKbXHPmzNEMZHHj/t0qQxOlfWhL2geyNlYEJIJWjNU6fO1wFfqktgRMPm8lh3KhLeLqOHDpgOaqZVyfuX5GXRKBIm3atJIyZUqJGjXAVFEOsIIhLtqU8qIpM1fYXUVOXV+wUEiKSATZ0UtHVckwLjRIDsJBecJipF3QrsmJjOaPAGch9bbrtozdPFbdidUzV5dXCryi7YcgRHFiPGN1I0TpL+YfbcY9eAbzFp4gJzBWQdP8TbW9ceM4NKMKG3ViPDMXUAZQJBAgrYu11n5kLIIYMRxlzbFaHwSw7lFoqBcuTPhAF72df96Zymg7FFwUma2ntkqtbLVUsDFGWIz1l6xpc6xHiJ4Ff56JsEMp+idw31LS0EhxJgupEL3BOfy3QBdenUGCNGYFGgkJsSPp6WAaikEGIDEGFZ8hXZHknEPq8jxIhMkNodCgaPdoyNyTTkdDg/TQsjAR0do6LugoX6/7WgUHg4xGpHwgTYI0kj9lfjehxEmq97lx54Y2PoKEv+lcOpkE7zyLg3JQHgMWxHAFYJ6Zg4kWCLgnPn8WiyZsnaBa78/bf1ZSypsir+cqN+nTBrQh5UMbqpeznk5IzEy0ZFwStCtWQ4cFHaT/qv46kDiP68sbpJFkokSEYAAC0AxsfjdtRL9xDi2SsjEOWMDstayX9snknZO1rPjB8ZOiLRVKWUgFEn9/t/47dUk1K9BMNSv6A0GLwDCTiHYwzwtrYhktnwXcsNJlMoYQKmo5OvfC7aHKjKMM0M48y1iQPN88y1fAGKuQa2kL/d3nmkCAAKZPIiKIcdMwByBE3A+UCS0RssT6JrezN6pmqqp5jhlLxjpjvtEOWMT0D1Y6mnrv5b3VrYJyhk+ba+g32oT24h/tyVyn7bTfnDaOHjW6jlEEKBYI/c+BAoIwYb7xGcqWWoBrhui45bmMW8YJCht9bNpYx5vT7jybZzHeAGsha9eulalTp4Z5rF69WnNWhAXq8ydJgD1QvnGeB7cYPtD+95wz4HfDFbQDZaFMXOt9Xf8/+t/FEbTnGQ9PIBixaCD6DmU6SOfyndWli6BBEOMyo50eJu5P+k7l4seMr+YdCawNkQIKToVwnwAkOZ97a0d8PxSeX2lkfPTenym5eq8u8JHXVwENhqZuiJjkxkhfXDbmoPE6le2kvkEDNBg6C3iTuDd8z9PwaKDeHYA1sOvcLvU1moOJEygqZqqokw7td//5/TrY6+euHyah3QVPEc3EY6AZlxUHGhluru4Vukv9XPXdFz9E0N/0BxadAZMALS+0TI4ggyC6lu+qGr4BhE9/UmfqjwshvL7xBkTEpPUGWj5WTFhaPuC+CHwDMz597+MNI8R8r/Euoz/lfdigLt7jBisVywVXjPf8gsBMve+akw4QvBAVcwTNlXWj8hnKh/tuBNfhEvEF87Fj2Y7Su3JvXQ/DXYQrddCqQdJzaU8dK5QVFx3WgBkjHLidOpfrLM/meNZzNzdof9MHzDVczcoxjqDELYa7MqyDz4wC4NuHKKq+Cuxd8FyuY9vRxAMFgs2bI3AxGfcWwo+1oVxJcukaJuuduG+xeigXrrGIWI2B4L6kD5BomDIs+GDOArSkWbtnqZmMVo3Gg8aGiYT/EDCp2TLHAhCarHmhR0nLZ+D5AlLkuWbXAASM37fP8j5KvFkSZtF7BsUIklpZa8k7Rd9Rt0KeZHnUfYI5ayYDP/l3LzCI0VRYgKaz8Wka/yT1ALiIOpbpKD0q9gg98G8HCl7CeDH3i7qoOGj1INVAmWjegFB5LpoWgxzXFb5UhCUmPROKuqMNPZfjOa3/W4XfkooZKkqSWEnCXTz8f4DVwUt5WFL4aXGTsOCOPxaCZGGWtsaKa5qvqZapeYHmkjRWUm07NE3ATiv2RENQ7InnPl8s/0ItN2/Qv2j9WHa0B4up7X5rp2sfBmj5LFDj2omIxuwNSJy+h/Bxk3Sc31F6Le11zx1D/xZQalj3YG2ENRTKDLB0IRozZg10zoUjpHDLMc/YeojAaFawmV7rrQ17A2UjrPnLOJ23d56uCfC+C+8GfFL2E7XkcdVQJpQ0/kaZqpejnnveFn5T11rwl2MpAJ5P35OAX3e0OD/hn26Lu6mLCVJn8RthH9aRI0cOzUzHPdDeIVSsUAiYHUz0rzfwZjCXOI8yS/lwN2Gx0p6B4PWCr9/FEW8WeVPnDjCCFA5TpcIZ12DN8TVK9r7ehYcBv2x9zBlIicUsiHD5keUqdVkFx6RES4U02aGDi6f7ku5KlkxWthFS0ZfzvezXW24GkFrOJDndi4MrvtSdLex8YQ0AAVMuQzl9Plvwui7uqgRBmfB14l5iBTwQFE1dVBdm8COzqIVWDykjiY2GhF+S417ghY3Ze2er24bB1mZOG/VtNi/UXP8GECN//7DpB/XR4/7CRPYGgwHzvdWsVtpu+GEZ9EwmtFYmHjuQvln3jXyy8BMtOwMVLQNNDN+jN06cOCFr1qxRH3KRIn9ZQYEADR6T3pAE7YLWwpoLZcSPj4DnBa4dZ3boG6BMNMYNu2CwRIatHibjt45XqxECYJDTHrgAcDP0rdI3tC1Y/KY/uy3qphYN24B5LpacAVo+u5Hix4/vORMx4Gak/L/u+lXXG1Ay2E6IBhbIJKT+WHCMe4QYrjeUInbK+LqCDh48KFu3bpUMGTLoTpP7KULewN3HIujg1YOl66KukiNxDu0PlBYIDNeBt7vwXmBMM55wt0DIbCSA6IwgAey2wQWDAoZlh9vC+LQB2jSuVhbylx1ZpvMRTRvlkOvZ2YJyg9egVeFW0u+PftJpYafQccvGg6hPRA29H22BksjcYD5xDS6hfef36RoZn+OqvJ+7knUxrArW/4LnBKvgYSEX698bWEJYHHAbC80oGNQDJdJYCqxnsf7IDkXGBx4Oxuer+V/VZxjwnfDAW7v0G67dj+d/HLrrDZcoCiQ7mFB4HyaidHXg+T1cMCkZDBA8BWLBk8mMPxFhgNaBRIWMmMgMIAYNWlPh1IXllfyvqAmjWpujuTI4S6YpqYt1QHdROITItWYrINfyTDoHfxh+anYDoY2g6XKeFXf8kxABhMjAYJ0A0zRdkLscCAI6BM2f79CBlB2ts0TaEqESGA2aDuAzJg4LyQgx3CUMVn+BhYDLhoEJyWHK4hrzfRuS543aOEoXdDBrKZ8BOxwGrh6o32NL16aTm/Q++GshJuqBFYTfNlnsZEqWkCxlRyjyZh+fGWEF2OLG9jZcIKlT+/8iiTfQhOgT6sEkxWRlt8dzuZ5TLY2JjvYJuWENHLxwUMvJ9j76hLZGUDNh2RYH2VBHBDxCGrIqlb5U6IRkvNG/7DbZd26fthFaFD5sxiHbM8eMGSMNGjSQOHHi/I00IWuEL8+pnrW6jgcACaHIYH3Eju52+yF8aDMmP8TNoiVjG4uM8jCO8OGzWM8kZewx1mgLxjxKA/dg3YrvY80xlvmJwsJ44HNvQPh79uzR3SbsrAoE9C2EhhsHYmXc4SajDiy6074IMsiJLchYVbQlbcS8pFwsyDPm6Tf6hp12XI8bDsWJ+9NvCNz1J9frgi0kzJoIz2cTgZnDtDVtxJoZc5fNEiggPI/F+0Z5G+nuP1xAhNWgLPQNRAoRc1/mWo6kOUJJD+WFdnY94dLrmJPM/xpZa6gb0R/gb0d44BaCR5gfuJIQkown/qa89CNlZ3yz2IwlS1+jrNKPXAMH0UaMb8YgJE0b09ZhubvCAu0GHzG2EaC0E1YI85y6MVd8x8mDRkCxd5D8NBykiFRmghsSMIAI2DOMScZ5Jhwr/FQWwqWDGTwQqZncDFoGLJ1sSBhQNAYhBMI1TDoGqSEz7sd5JDeTje/rlirnHlyDEMB1wH1wS2BxMGHpPD7jOkjJgHO4UY5fPe7eNsjCl0MKgWh6mGwMMKMdAMrFgPK+D4Iq86DM2sE7Wu0IHTR878jFI5JpcCYpmqqoTGs4TQcGmjQTmnsZcC1CFE0SLYj60UZMKENwBrwABPGzdTM837c/oP2wgugTBDWDl7KbMUBbM5mxUhjMtDEL6WYRkD3a5kUevk+9+NtolRCUty8ZIqH+9CPkSv1M3WbOnKnEX6NGDd3CFxYYF4wRvsvzabNrN6/pjhHIzLudqBv9wvOY5JAf45Sy0a+UhfFO/TDFE8VMpATK7/Qv9WF8M0e8pxUkgWDznie8JDd//ny5efOm1KpVSxd0IwLmG/3PwfBKEy+NKl+GOBjrKAOMCWNpUxfmFXXRc05RzbymDpAS44zvQmzMAdOO3mCO+JId5aGvUApQRlBuMgVl0nak/UFY45b+gZzN3DbgfpAwcxz3oSoVjmAOBNSf8tBXjB8sUMYmcx8OCh27zj/OI6wou+EbM0YYp4wPxoEBAop2RIkIBLQlc4R2p6+YR9zHd94+DNjE6P8wNp/crLuNGFT4wnGNjKwz0vOpe+AZ0mc76rLXlnk+sfAFOzSyZcsmCRLcvSngccDu3bv1xaycOXOq/9nC4p/CX6qHxT8CrCB83Gy75DVs9o57A2sA7QsXDW/gWoSPAgUKSFBQ0GNH+ICFSdZXMmZ0L25bWPxTsJr+Pwz2KLMmgknJwihmrS8wH/HRY1bjN7X47wFXGzuPHkcrxeLxhiV9CwsLi0gE696xsLCwiESwpG9hYWERiWBJ38LCwiISwZK+hYWFRSSCJX0LCwuLSARL+hYWFhaRCJb0LSwsLCIRAtqnz6XE4yAAGDE1iJxHzBziRRA34kGCODjEsCGsLcGhiIXyMEHMDeKRECPFOx5PINC4Qk57ENo4ZrSYd8Xa+bdAWAeiJhIPhSBVvrFS6FOCvlF/+tTfQFb/L3gucVfICMb4ISAdwavCAmUnfgoRGom/4vsyEy+zES5XA3clyx3mC2/E1SHxCEGuiHNCEC37UpRFZITfpE+AJDK7EBKUiUNAJiLUQWxMIu9wtw8CJBsg/yuxrUmETKClhwlSPZIr4KPSH4WmWQwUpEAkdyhRM8kO5Rs86t8AwcKIZU5+XUK6EvrBGxAmYWTJYUw4ZsLlPmyQmGLwmsEafptAXpAv6eoIB0zb+0YZfG3qa5qn4fUCr2s6S6J9GjAeyTxGRE8CnyG0IfQhTw/RsYnQ23lmp/RY0iM0bzKBwoiAOqD6gIce0dDC4lGDX+4dtG7Sp32+7HPNWwsJkxmH4GHkYyVkwIMGUejQAjWMszNRHzaIfU5MHKLoRRRYQcTg1siezr9HASTCIPQDseiJougLNGDqTlx8jdT4kIEQIpXe0NVDNSLqGwXf0JDRhKUg2qJvlEFim5OUh8QrREo00TgBYZpJckEoa8J3k7eXEMcEqjNW1q3bt6TFjBYyb988eSH3C9K2WFuN2c6ziChpYRHZ4BfpE+/++w3fKyF+XuVzzebeNH9TnWSY1N6A7CBpkgsQVMz3c0gGqwFBgpZJiF5C2ZpwpXyfz3gmrh2u5zNioPOTv73BNVgFuJyIge39OfciNKv5HqRMIghI2QBDh89v37mt15tncVCOhwXKQwx0MuYQ6tYblMO7voSiJpF7WMIP7RYypL1NmUNuh2i9+C5tzTWAz+5XN8LPEjOcENPhGYEQL4efRuJdoM5z989Vq4MkKYwl4oiTQYuY+t7hhwnhTLYwcgqbrGve6DS/k2Yg+rLal5rIouFTDZXU6+as67lCVCgg0L6u9bUmWCeZCZmh2hRr80hYYhYW/zT8cu9AOnmG5dFJOafJHDWJISbM5To/1VF/7Ki6o9QnTkrDSTsm6YQFJGgg6QGTEjMe3yvaG0kTQv4MUQ2UIpD4AY2PuN9kphm2dpia9BAfQcfwNRPnG4Iola6U3pvk36RrVEIMuabX4B5okreJmu+4Dr5e+7X6q1kTwGqgXBAI0S1JIkEdhqweotmgEECUy6RAJIECWqG/SVTIqtN0alMZX2+8VM5UOdzY2PiWyS2Mhg0ps2ZBuT+t+KkSEeV+ecrLmouAFJS0J2RMgDYyZxVPU1zbjPYhfeTWM1tVuOEiSRArgcYI71Smk37eZWEXOXz5sCahIH48MfkpF30CmSIAqD8HUT3p1wMXDui6BvmGcfl4u1NMekKiRJKBK9DY/FiLZGGC8BHCJL+hb0jc/WzOZ7UtDFrOaKnjZVy9cfLM+GfUvUP9zbpDir4ptH/oL/qRxCfUsW/VvqrJU5eMAzJqHT+t8KksOrRIlRCueb/k++qWtLCIbLivpg+54FfnwK9ufKCYzxD6d89+Jx+W+lATDJBejklNogy0LiYkoYRJ6UZeS+4Foc3aO0uJDM2crDokKsCnPm//PCUk0uWRtYbzTGgyc5HBB2I0C8aQGKkCyZ6PUICgSXoyc/dMTVdHWjUmO1mM8NXjCsDPTrYv8oiO2TxGyY3kHggtcu7GjBJTs+DwLA6y9jzo1GUkg8DdsPDAQm0ftE6SNVDmjgs6KlHh86YtEH6kU0RzJT3k9N3TNYk1YMGY/LR8zsIx9SeLEm4MhCHChAQm5AvGx40rA3cK9eJe2RL9laQcILDRwkkMUidHHRXQpIOjnN4gBV7SZEklefLk4SYuCQ/0/7rj6zRxBPfGEmTxlnOfLv1UZuyaocIN8DupJz8s/aFkSpTpLgsAUF6sPNyAtAEL1PzOOlCjiY20HQE5T1PESaFp/Ohfxi/XvDXjLVUGLCwiG+5P+pCQQ54gdtS/sjYBtEF8qOyYIFk1uU8x+3tV7qWa/RuF3lAzGncDE9PcR7VSR9tqV7ydvFbgNSU/3Dn4ZtHQIGfS1JHSjJ0Y5OBlHeH5XM+r4IE8lhxaokKGNIxobaQ25CeCYe7euar9G+DeYIGSBMyQLPfAHQL5kPEIwVMiTQnNcITbgWdxFEpVKOCMOPcDlgk5ePtX66/p+KjbuyXe1fRrE7ZNCHX1UEeezeImhI4QZQESdwaf4X4ZvWm0EiLtjQWEX5t0awaQPC4NkqWjTZO7k3rRBr6x+ukbcoS+V/I9dd2RtQvhiOvNG5B+5syZJXOWzJqFKxAwloJvu5O9kwi7fZn2ugFgxDMjtK4QP9YWricsPdLnkdLQ29IwgLBxXzEGcO+0L91e+lTto+Nm5p6Zmk8ZMB6PXjmqVlSHsh2kW4Vuet2Sw0tUQbGwiGy4L+mj8WFOM8HY2ucNyIcJDIwfHxcMhML2P7RytGgSNJOCkF0/gJ0/uIogGVwR7LiI8WQMdeXwPJKIYOYjACArcw0/0dQgKPzYuEdm7ZmlmnODXxrIW7PeUhP+wKUD+izKB9CkyVFKGjkOns89IBcsC8pK7Hq0SVw5PIuD67w1THLa1p1QVyqPrhx6BLr4OXvPbG1LklA3mtRI6v9cX1rPbq1thxtt+eHleh3tQP5bXFmQvebjdKwSyoyGi3DAPYI1QluiMeO2wsVjQNslip1I+w/LjHbVujn38k05xzVYTCb9ISnl6A8OX8SIHkMPyhgIKANpNmlzhBOChfFCHXMlyaV9ivuFZPi4rBDcbee0lSaTm+hiNBZbs2nNdG3JpGjELchBuXHNQf64eUjODrgGKxShz7Nwb/E7fTBxx0T9aWERmXB/0nf+QYSQCS4VQ6QAF8NHv38kvZb20uv4Byn5ukTMxDK7JficexpC1W/6Egh/+pwyi7J8j++gAWIV4I54Nsez+hOtuXfl3pr03Jj4kKbJD8r3/AFl5nne9UXLNaRljkBB3SHjF556QcvMwU4oyAqN3ewxpz3Y6x/6DKfYvu1lyug3PFWhj4ywNkDAea9d+NtOgYAy50ySUwU6zzMLqaY/TVvTxxA4Ah7hjUuMMuPSYdEeoUd/8h0UA++yIuD5m2sB7U07eY9J3DyMDXONhUVkwn1JH+DGQTtiy98v23/Rc2jK7LNmjzcTEk0ZF8XBSwfV92yuwae+5tgaSRk3pS7SAib/30jeB0xSTH5e0GIdAF8vPuy3Z72t/nn817hm0FBxFbya71V1ceRMnFM1SEjDkCRkzb97ASKKHjW6W9sMCda6tpzZUt9NML7fGllqSM/KPWVg9YGhR6AvpbHPHJcDC8qUmaNJniaqsVfLVE2TcRt4k5k3qBdaPesQO87u0O2MECbuqk2nNnmucoN6Q670ERov17E1lQVnFrkNuKdpr4cJXHSs2bD2YqwkyBdLkDFBeVlgx2UztOZQGfz0YD3oa1JI9q3WVy0z2oa+ZycQ3zcCvsuiLkryuPsAz0NI4FIDtMPSQ0v1+7iO/ok6W1g8SvCb9PG9QzSdFnSSxpMayytTXpHui7tLmgRppFHeRroA2DhPYyWVj+d/rK4LruF6fOX4mwPxjzPJ8emTMZ6J/Mqvr+hiHD7hFPFSSMWMFaV65urq020zp428M/sdaTG9hbSf316m7Z6mBBgIWDhGKPEMXgbCjcBCYuKYf72hC8HjAsmeJHvoYRa2vdF1UVd5bsJz8ux4R5P3HGYhm/UDyIaFW4j33bnvSrPpzaTTwk4yfN1wv9oIcoQ42TKLkHp79ttSc1xNeWP6G7oo6g1ILXPCzLrjhx1KDSc11P7BdeKt/fqLO3fuyLJly2TJkiVy7Vrg7088lfwpKZa6mMzYPUNen/a6vPrrq+oyQznoUq6LumBYgMYiYA1i+NrhOoZwfUHwPRb3CNXQhz49VN2K9X6up332/M/PaxsWSFFAnwGxdyzTUd/ipY3ZEcU4+uD3D1TI85mFRWRDlK4OPL+HC0gG33DeZHl1hwT+VnyvFTNVVHcKWnXUKFF1t81TSZ9S18HOcztVQ4Zs2J6H9oZb4+rNq3L11lVdOMXPDtDiOfD/E9oB4NZIGT+lEsChi4fUlVQ+fXndtgfZ4rLBl50yXkp1AbDzBI2O3SrPZn9WFzgBZMGicZHURfReaIEnrp6Q5HGS67UIF4D2yO4fnsO9+PutIm9JpcyVVKP0B9SXA/86ggKBYA7aiF00+NJZbMavvv30dt1qyOcsILMIyZoDC88IO1xXCDfAOcqdNXFWFRoQNn5s2hC3Gc9DcFFu/P0sEFMO+o61ECwj2hgXHWsFbI+tnb22fo+dWVxXMm1JJV2EE+0AaeIvp50N+OzEiRNqPZHYO9AdPPQrhE6ZqDsWFQTcqkgreTHPi7rmQFkMeJuYRX4EF9YiLq9aWWupewfBR9lw+bATCFcXGv7HpT+W1PFT6/eDYgVp3/NuxubTm3XDATuYPin3iY4372dZWEQGBBR7h0mFq+X8jfOqQUJcaP/GN4uJzU4dtGyIB9Jg0nGN0YjRzCBiCInJDhAkkAx+XojZAIK+dNPt3uHlKRbv0LbNvfgcImNBk336CB4sDq7jGkx5JjvXcQ7/L79zPXWBYIwWDxBWbPHjmfh9EWKQtL8uAAQhdecZvoDkTH1pJ8iHZ/FMykC9qDskRLnxY1NehBrgHIuZfI4Qo/zErqHdIEM+Z0cPlg5rHdMaTrurbrjacClp3ZzzCD36gO6/HHJZteegGEHuc84/3GoclBtBYsD1wcHB+jN27NhK/hEB44N+pVwQOOVBuPq2Ne1gXi4zSBc/XeiY4/sIfeqFIMRa83W54U7DfcQCMO3HFtdkcZPZN3ItIiVsYvTHFFgC7899X39iQUCcWCiExGB7J75vhK6FhYWFNyzpP6bAqmB7J28B8xOLh/cPzE4m9uhbWFhY+MKS/mMMtjbiqsJtgXuHHVT4673dMRYWFhbesKRvYWFhEYlgNylbWFhYRCJY0rewsLCIRLCkb2FhYRGJYEnfwsLCIhLBkr6FhYVFJIIlfQsLC4tIBEv6FhYWFpEIAe/T501Q8poSez1DwgwaA4bX/Qmm9jiDl5uI0UI97hVrh+YyiUWI7/MoB+yirAShIxYQcWn+i8HFiF1kwirfL8cBcXoYq496v1lYPEz4TfoQ3aTtk6T3st5y7sY5DepFlELyufL6f//q/T1XPp4YuX6khjvuXaX331IJegOBR6YuiObHuj+GRnN8FEEwNvLBrjq6Sj6r9JlGEf2vofA3hUNTTJKIhvSQYQVSI5dA3mF5NajbmmZrNDifhUVkhF/uHTTglUdWaoCvO86/jqU7yhsF39CY7IsPL9ZoiY87Lt68qLHpifh5LyD8uI7DN/rjo4Y///xTQzSQrASL7L+IRnkaKdETjVPJPxwVBt2GUM4EqDOWgYVFZIRfpI9Z/O36b5Xkvqn1jbyc/2VpVqiZfFbxMw2l7AtcJYTxJRTwvQwJ3A6E7z177Wy413Gea7gf9w0LxLCH2Ag6Fh7MPYjN/v+AuPSzGs+SOY3nSOp4YWv5lJm6E+f9XvUHlJnrHgUgGGgjQl+HV276jM+J+RNefwDcLoQ8xh34/4C+JVk6wjgssib5/jtF37mve5Fw0pvf3CwrXl9xTxfQ/WDG7PHLx1UZsrB43OCXe4eY9LmG5JKcyXLKvJfmhU4aNKenxz6tyT7G1hurE5zE3wNWDVCNCjM7S6IsmrCjQe4GOmHIdNV1cVcplbaU+pknbJugPnTSMX5Y6kONYb/44GLpt7KfJsjg7xHrR2jGrMoZK2u2KJN8hYQgfMYzL4Vc0sQqz2R7Rl4v+Lo+F6CRf73ma5m6e6rGjC+Sqohq65AA7gDcVD2W9NCUg7hDiFVvkoa/XeRtaZinocaUB82nNZdVx1ap8CuYoqD0q9ZPk554g0TtX674UvZe2KukQPlJEIKgpD32n98vtcfXlqezPK1E9dOWn9TvTqKPsXXHapIQAzT1gwcPytSpU6Vx48aSLJk73aS/gMCHrhmqdfum9jeakvHXnb/K58s/18xStDdJUxA803ZNk6/WfKUESznJWvV2sbelauaqei/6jroNXj04NFcy332n2DuaAIaMX+M2j9OUliSmQfM+cPGA5lxoXbS1pok0+QT8wfcbvtfUnLvO7VIBQvz80mlLa+pE75wLBvF7xZfO5TpLu+LtQmPtA9q25o815fCVw2oFkOv591d+93zqFiqfLf1MVh9bLWPqjgl11xGmmmT7JL8ZXXe03mfzyc2axY2UlAgg8hiQorNF4RahOR4sLB513DdzFpMbLbr/qv5SLn05Dd1rEDdGXM1bSu5YEn7MPzBf3pr1ln6HmO5kuNpwcoMsPrRYiTRv8ryy5fQWTWl34soJncxVMlfRxCorjqzQhCtFUxfVLEgIAyYXBEv2Ju5JFiWSZJDhac/5PdJ3eV8NLVwgZQF5OuvTSua/7f1NhU/OpDmVqHou7SmjNo3SZ0O0kBGuqtuu25pbF4Ii8cnpq6eV9Hl+nqR5lCAhYojNTOgDFw7oT/Ktcq5eznp3JRMn92zz6c3l5LWT8kreV6RY2mKavvDXXb9KhgQZJHey3Jo4pfuS7pr05fDlw/Jy3pd1UZFUhpBSuQzlPHdzt/3Nmzfl8uXLkjVrVokZ8y+B4A9ohzXH16gArp6lurbxB/M+UEHUtlhbLQ9kNn7reGn/e3vtI+qE73/jqY2y5NASbR/6kWtIA4nVR+YqMpxtP7NdJu+YLGkTpFVBTD+TH5l2LJuurLbl1tNbZequqVI4ZWFNNenvAmqfFX1U2SAlJoIHgT5zz0ztAzJfeSeIAb2W9dK2IyOb70L8rrO7VHAj/LBOyORmgAJDVNIvln+h1gTtxM/5++erovBmkTd17DAmG0xsoMlYaCPGIJYMqTnJBsez7eKwxWMBh1juCUdbdTkajivmpzFdrWe19pz9C442qsexy8dcjmbkyjIoi8vR1F2OVu26eP2ia+auma6MAzK66vxUxxUcEuyatH2SK0r3KK4qo6u4dp7Z6bp847Jr7OaxrtRfpnZ9MPcDveeMXTNcWQZmcZUZWcY1d+9cvcbRUF2FhhdytZndxuUQpsvR3l3p+6d3tZ/X3uUIEJejsbmOXDriajatmX73l22/uGbsnuEq/E1hl6Ohu5xJq9c4Wqqr2phqrqe+ekrLefvObT3/2eLPXKn6pnI5JOa6cP2CHs7k17oZOJPb5RCI1rHkdyX1eQZcV3V0VVfQ50Gu5YeWuy7duKT33XFmhytuz7iufMPy6bO2n97ukq6izzp66ahes+XUFm2Tct+X89ztL9y+fdt1/fp11507dzxn/IcjyFxdFnZxlfqulKvfin5a7rIjy7qWHlzqCrkdotdQnkYTG7mq/1jdteroqtB++3bdt65sg7O5Oi/orO3/8e8fu3IPze0avXG01o1ziw4sclUeXdnVbGozl6MZuwatGuRK1z+da8iqIa6LNy7qvRbsX+Aq+k1RV9Nfm+o1/oK2OXX1lI6rjSc2ulYfXe1K9WUqHYec80W8nvFcfZb30Tb2BWV1FBdXjB4xXOn7pfec/QuHLx52Jfg8gSvX0FzaLo5gceUflt+V+6vcOg4c4ePqvay3K+ugrK7J2yeH9u3yw8td5b8vr2P55JWTnrtZWDzauK9Pny1u7HhwrlXt1BeYuWg4aJVbT22VLAmzqBYUL3o81aDQuMmTS37XI5eP6HdIlE62J/K9kp4PLQzNzXuxEW2N76Llcw1pELkn2rwz4fReR68clREbRkiZ78tIweEFpcKoCrrDCJcOPnW0MxYyS6Qtodoq9UDbxFrBQsFqwBXAedwqPDNutLhaHlMmb+0NTRjNPqzdIVgr289uV/dQ9qTZ9Trumy1xNt0N5LuASN1xJXBP3BW0LztMfBElShTV8COalhCw4I7mTLuj5WKBGB84bihcGyRieXHii+IIVinybRF1Y5CbmDphYVF+8tmSVJ0dM4W+KaRJzbFuSFi+6eQmvR/jJX7M+KqZ019F0xTVRPZLDy0NXbtgrOA6Sd0vdejx3tz3dIwY4F5pPbO1OMJVqv5YVWr9VEv7FEsj0IVYxg/lCQ+M05aFWqqbi3pigeK6zBSUSfuRNYyZu2eq66vtnLZaf8Zbo8mNZO2JtZq2ErefhcXjgPuTvkN6ECB5bjGTvYFb5O1Zb0v3xd09Z9y+37sWyhzONJPUpO/Dlw8hepvh5jMD7qFk7DHjKYchYPMTf3yBFAWUwFkT4Oer+V9VHzrrAfjUKQ8kbYiaZ76S7xXpUKZDqN8/LEDCgYAy8Syq+qRXs/I88vv6wnsR2LfuDxoIE5KfQ1pz9s25S7jybMpIWyAMaUeOF3K/IG8VfksqpK+guYsRjghM3Gjmmro560rzAs01oXua+Gk8d7wbUZ+Ielc/A9qK6xGI5sDlxLgAkP+Hv3+o7j3688uqX+r6Ccn5HwYQTi/le0ndSR3md9A1JZ5FgnVTdsqMcCYrman/czme0/Uq2oq1CwuLxwH3JX3AIt0zOZ6Rned2yvRd0/Ucu2BWHl4pk3ZMUr8wWiS+TzTHefvm6TVo5TvP7FTfMJPaEAMTyBB3eNBrwiFD1g/wO5PgOnvi7LqY2L1Cd+lWvpuuJbxW8DW1EPA745PGX07uWAPWKFjU9QaaINovflq0SRYh602oJ9+s+0aTbt8PEGO+5PnU+kCzNjtbWPRcdXyVWgDe9QnLWnhYYFGWXVf48SdunyifLvk0dOeJsaZYo6iYsaK2I0ebYm3kjcJvSOO8jdVPjpBC48U3b67pVKaTLnSzcM66CkDA037UH8HJGsu+8/v03ukSpNNrEOR8f/ILk0MPBLVZoJ2xe4Zaa8NqDpP3S74v9XPXl3zJ8oUKhQcNxhr9j+U3a+8s6bmsp/Yn4weQtB1i5zreSele3l1/FAe2Lr9W4DVdv7CweBzgF+kzSd8s9KYS+xsz3lA3QJNJTaTFzBa6iMfATxw7sWpluF6aTWsmL/zygjSa1Eiaz2iuLhN2OdxvW52/YPKx4FYjaw0Zt3WcPqfVzFbSeFJjeWHiCzJszTBdsMXNVDx1cSWexpMb6/H8z89L9bHVdSfOllNbPHcUvZadOJ0WdJKXJr+k7gcWJhEu1Bu0n9den4VrCddRw0kNZcLWCbrwB6H3rNhTrQ/K0GRyE71PpdGVVLMeUH3A3zTe+4HdO4cOH5IRI0bI2bNnPWcDB+6LwqkLS5O8TaRBrgbyw8YfpO+KvvoZRFwhYwW12t797V15bepr0nJGS6k7oa62AQuzEGCljJV0UbvH0h7azrheaoyrIXXG19EFYkPIED3aMucZJ+3mtlMLg/4ypE9bYcWxm8ccPMO0T8k0bvdgq1mtpM3sNupGos8QyL5AMFceXVl3dyGgq/1YTZUQA35/ZcorUmtcLe0HFtL5HTegN9DUO5ftrK4nrKIKGSposnnAhgUEI4Lv82Wfa/++M/sdHeO4nnhh0XvHkIXFo4z77t4BkGzC2Al1IjCBVxxdoS9kMZF7V+6tZIA7hkkBeaLt4idmkjJZupbvKpUyVVK/NPu7D188rH5+3ugF7PY4cumIasr4gNEo8ZOyI8RoULx4g0+YZ3EuYayEulU0ZbyUSsDsqLl666pUzlxZmuZvKjmT5FQ/PTtwKBfa5trja/X5fB/rAO3UuKIw5/HhUr/Vx1crCWHeV85UWf3uYO6+uUoaaH5YLmjr1AFXEgItadykWk/aZsXhFWr1oC0Orj5Yd3fwLMiJHT1smSyboawSIFYTb82ikeM2MIBAL1+6LHv37pWcOXNK7NixPZ/4B3Y+sUuK+9B36YLSaXtdCbmi9YBYceuwvoCbjHP4prFyMgRlkLeKvCXPZH9GhT6EnTdFXn0Dm2t2nN2hmnnLwi31Gvzm9PnKoyt1CycuLX7HumOMVMtcTS1Gf4ACgTWHxbT+5Hr9vVO5TmpB0PaN8zTW/gE/bf1Jy8T6iO6kcolujzUCBMtj8vbJqoykSZBGy0M/0C/sXjLgDV3qw9oE47BbhW6huYbpI8pEG2LBUE92oVGfF/O8qFtbzbUWFo86Aoq9g9aEVmtcF7gEIARvDZbPjHkP0ACZHIZczeeQJJPZnGPxjGu41vdvgDsCcuRZnGMiUvSQP0P0WvzpnDP3NZoXkx4Nj2uMBuhbJgPvsvMc6sb9uC9ACzRuEQPu430Nz4CEzNu6PIP7mGdRThbE+Q7nAfVgEZEyGzIzQNu/deuWRI8eeLwY0z6U2fSTaUc+o/8oBzBtbspNWWjHu+rm+S7t+afzD6FH/aM/6S4be/h5R6FL+S5SP1f90HZEYw7UNcNz6AuzJoMFZcqNlWDagnbjnDcQQN6gvXW9xcD5KnWj/t4wfUOZ6Qff9uZz2gi3pak/9+BegfaNhcW/hYADrllYhAdD+j0q9lB3noWFxaOHwJzMFhb3QFCMIHUL4TaysLB4NGE1fYsHBlxDuH5wefi6ziwsLB4NWNK3sLCwiESw7h0LCwuLSARL+hYWFhaRBiL/AytVeajvFpo9AAAAAElFTkSuQmCC;" vertex="1" parent="SpQzwTgwdDxSrPTeLPvR-4">
          <mxGeometry y="26.5" width="381" height="147" as="geometry" />
        </mxCell>
        <mxCell id="SpQzwTgwdDxSrPTeLPvR-11" style="edgeStyle=none;rounded=0;orthogonalLoop=1;jettySize=auto;html=1;entryX=0;entryY=0.5;entryDx=0;entryDy=0;" edge="1" parent="1" target="SpQzwTgwdDxSrPTeLPvR-1">
          <mxGeometry relative="1" as="geometry">
            <mxPoint x="-661.3333333333333" y="720" as="sourcePoint" />
            <mxPoint x="-523" y="758.4978540772534" as="targetPoint" />
            <Array as="points">
              <mxPoint x="-566" y="840" />
            </Array>
          </mxGeometry>
        </mxCell>
        <mxCell id="SpQzwTgwdDxSrPTeLPvR-13" value="&lt;font style=&quot;vertical-align: inherit;&quot;&gt;&lt;font style=&quot;vertical-align: inherit;&quot;&gt;&lt;font style=&quot;vertical-align: inherit;&quot;&gt;&lt;font style=&quot;vertical-align: inherit;&quot;&gt;баннер&amp;nbsp;&lt;/font&gt;&lt;/font&gt;&lt;/font&gt;&lt;/font&gt;" style="swimlane;whiteSpace=wrap;html=1;" vertex="1" parent="1">
          <mxGeometry x="-806" y="840" width="381" height="251.47" as="geometry" />
        </mxCell>
        <mxCell id="SpQzwTgwdDxSrPTeLPvR-15" value="" style="shape=image;verticalLabelPosition=bottom;labelBackgroundColor=default;verticalAlign=top;aspect=fixed;imageAspect=0;image=data:image/png,iVBORw0KGgoAAAANSUhEUgAAAXYAAADcCAYAAABkropZAAAAAXNSR0IArs4c6QAAAARnQU1BAACxjwv8YQUAAAAJcEhZcwAADsMAAA7DAcdvqGQAAHcMSURBVHhe7Z0JvFXT/sCXsTIkQ4YKDYZE0kCDRD2RmYdkllKml0QUUUQDGTNE5kgvROSlVIYkIkMiVPRCoTTgb/bWf31/Z69z19n33HP3ud0Gx+97P/tzzx7O3muv4bd+67fW+f3Wsw6jKIqiFAzrR/8VRVGUAkEFu6IoSoGhgl1RFKXAUMGuKIpSYKhgVxRFKTBUsCuKohQYKtgVRVEKDBXsiqIoBUaxHyixu2LFCrP++uubypUrmz///NNssMEGZr311ouuWDf4/fffJY2kLR/43oYbbpjzff73v/9JPuR773xZuXKlPGuLLbaQd8kX0sj7bLTRRmUuH77Pd8mT8uaPP/6Q9+P+pLEscI/vv//eVKhQwWy66abp9w3hGvKirM9Yl6H9scWhvpR3mfEcymtdzUfKmfcuS1v5u5GRQzSaunXrmm233dZsvfXW5rjjjjNHHXWU+eyzz6Ir1h2aNm1qLrroomgvOXvvvbd54403or3sPPHEE6Z79+7RXvnz888/m3bt2kkek9fNmzc3//d//xedTc7s2bNF4M2fPz86kj8HHnigOfXUU6O98uXcc881lSpVkvcsC59//rmpU6eO2W677cyWW25pnnnmGdO4cePobBHnnHOOadmyZbRXWPTr189UrFhR8jHceOfyZuDAgdI+1lU6dOhghg8fHu0puUgLdrT0atWqmZtuusksW7bMLF26VITPq6++Gl2xbtGpUydJ318NNMvDDz/cHHzwwea7776TvKaRItzzhU7hyiuvNFWqVImO5M+ZZ54pHfjq4OabbzaLFi0yG2+8cXQkP/7xj3+Yxx9/XEY23OfRRx81y5cvj84WcfTRR5uOHTtGe4VHr1695P3D7bbbbovOlh90jl27do32lL8yacH+8ssvm1122UWEzuabby7C4uyzzxZzTMivv/5q3nzzTdF60TxDvvnmG9H6P/30UzNt2jTzww8/RGeM+e233+R8HK7/+uuvReAtWbJEKi2dCixcuNC88sororl5GCpyDcKIhp8NhmwzZsyQdJb0XNJOGmfNmiX3BH9vOjk0aN+IECxx/LXcPx/oKHnPSy+9VEww5DWdVI0aNcx//vMfuWbx4sVyb9LAc9566y3z2muvZaQDAcfQ+cILLzTbbLNNdDQTOg7yD42ecmPf49PPiAzBGMI5ygR45tSpU7OO2nj3999/X+qOvz6EuoO2XRYzEfWC92vRooXZZJNN5B0fe+wxs9NOO0VXpDpJnsvoDW0uG1zzySefSBrJV4//7k8//WSmT58u9cG/K88O4Tj5T12Jm0V83aLOvvTSSxnP8GBKor1w7y+//DI6mpzNNttM8jHc4u2StkZ9pu2FbQqy1f/4MerkbrvtZk4//fToSBG0B/KHd6P+xsua7/7444+Sj9TZX375RfKL/yGk8fXXXzczZ86UOhbi00Ne8Qzavof34Nncj7Lw7ZJ2rpSAyzTBDcftc889F+0VMXnyZOsKRD4//fTT1hW+dY1Itt13392OHDlSzrnKZJ3Gb12vb4855hjrKoitWbOmvfvuu60rROuEinVDcuuEtFzvcRqZrVWrlnVCwnbu3NnWr1/fuoZq+/bta1u3bm2dJmZdBxNdba2rQLZVq1a2atWq9pFHHomOFuEqhd11113tSSedZE8++WTbpk0b6xpBdNbaunXrSpo4ftZZZ8mzuJbnu0op995jjz3kXfjM5rSj6NtFuIpGq7Gu84iOJGPQoEEZ7+MZPXq0Peyww+TzgQceKM/v3bu3PP+EE06wp5xyir333nvlPFx99dVyznXA0ZEiXIWX/KN8eNahhx5q99tvP7mvxzVG+T7PufPOO6OjKVxDlvs6YSjfIZ/Ik549e0ZXWPvwww9bN2y3//znP+UZTimwF110kXWCL7qiCCeUo0/5Ubt2bTtw4EDrOrHoSCauoVuniEh5k8Y4TohaN6qzBx10kKRxzz33tN27d5f8cYLKOoFpDznkENu2bVu77777ykYZHH/88fJ93uWGG26wO++8s9RnzjVp0sR+/PHHch7IPzeSsAcccIB1HbTdYYcd7P333y/n+P6NN94obYa6SBppH6TZdbRyTWn06dPHXn/99dFecWhbd911l+TVaaedJm2PZ9DW/DNIYxyOkX8e3q9evXrSLuLQBjlOPvEOlPsll1wSnbV2r732knNOSZB60KBBA3lH6h2QD8OGDZNzyBmu41kffvihnEd2uM7KOsVG2iPPQyYMHjxYzpNOZAH1iLL27ZLyVbKTFuyNGzcW4VsSCGQqQ5iZX3zxhXWapnUaYVqwv/jii9FZa502ZLfddlv79ttvyz7C5ogjjpDKCBR4o0aN7KhRo2Qf+D4N7oILLkhfl40TTzyxmGB3vbndcccd7UcffRQdsfbbb78tJtgRcnQQHr4TCmjS4zThaC87NJpJkyaJEMwHhB/CPQ4dEkLBc95550kl9pW/JMjfOKQfARRCZxYKdg/5nE2wb7zxxtJAfeNfsGCB3WqrreQzfPXVV1LmIQjOiRMnRntFlFWwz549W4QtQqpXr17WaaNZ68Q999yTVbC3b98+ozMCN8oTQegFu9Oi5R3dqCItsKkvnKd8qRt0BJ5///vf0mH6dNABdu3aVT6DG9lYN6qQz06zlfuiBITwHklBsB988MH22muvTW9udBCdtfa9996TcnGabnTE2ilTpuQt2GHMmDElCnbS4SE/EORe0UCw0xbJM5QdX2dJA8+YM2eOrVSpknVauRwH6nuFChVEmaIeURZu5BidTdW36tWrR3sp6HDpIJTSSZtimGl2gjbaK859991nXMYal9nRESPmgy5duogt1eM06eiTkUkebHbjxo2TfSbpGK4y3AKGZdiYncYs+x7MQHfccUfeQ/gJEyYY1+iM0y6jI6n0sJoipFu3bhnHGOZnG67mArsxpiDMKfmS7b045soj2kvhRi/GaTbRXnJcA5WJyxCndUafksEwl+E0k7PA950wk8/gBIPsM2TmunfffVeucQ0yumLVcR2FmNR4BkN8J0CME6zR2dJxSoJxglCG8H6jvjI57qHseUdMYtQdYLWJEzYyWfuvf/1LPvvvH3nkkcZ1aum8oC4zwelxmqZch+mLOsa93OhKzDgc516uw46uTgYLGo499tj0Rlo9bpQt9Tk8FrbB8oK66GG12OWXX27caCRdZyl7JnnJS0w6wD71iDLD9Ij5yOejU+gkL7xpClOOE9ryGbhfLnmk5CYt2BEg2OhKArsak3VxaBhOc4/2ikMhe7sjNnxspk8//bTsMxmWbeIu7DzyARtyEkGbTcjFherqgs7QjSiivSLIXyp7CLbjsoBNlOesCggKbNsh4fI6p8GJgEJwUm+ef/55se+WFzR67N9AOm6//XaZK3AjjLRikAu+S2dA/Qq3Bx54IC3AwS+dy7a01Y32zMiRIzO+j3LDRLcXOgjR7bffXj6HUJ+wjaMw8DwUHGzj1G2n7YrgT4obyYlg9Vs4GU0nw8qhfPF5W1YQ0syx+Hbj8zGb0oLwps2H+XjCCSeIYuTrFHKE9wzRZY1lJ51zJ554ounbt2+GVkbho4EgdKhQLK+Lw+TZfvvtF+0VZ+zYsWafffaRzxS6G/ab3r17i6aOJn/FFVfIuZCyFigNKMnSzNLWpzPSQIPwICDQgPOdKM1Gs2bNZFI3zv33319siWVZ1xPXrl17lVcz5RotUUdIL+/BSA7tDUFfs2bN6IpVh8nG+EQenRUChY6rNOgMGFWwemT8+PHp7YUXXjB33313dFVuGjRoIKOG8PtsEydOTAvX0uoSyzQvueQSmVikzjO6QRiXtuQ2KSz/pI3lIl5vGTUnycNc0M4QxEnaaqtWrUQpZHFAPB+pq5DkNyN0Akzieugc77333mhPCUmXygEHHCCz1lR6Zp7RNK666irR5NFKOnbsaObMmSMZSaXgGrQfVl0wXPWMGjVKNB3uhUmAiszw1UNHQaNgSNymTRvpqT3MdNOJUGCshEFri4NQ4RzCltl4hulea6ACcb/LLrtMtMePP/5YhsF+lU1SWIpIJXznnXdEO3z44YdFyw41Vt6PdfT//e9/oyPJYMTCKKZnz56SLvKSJabkGZocYM7g/oxAuH+20QTXkw9ojvwPV7zQCY0ePVrKgnOYvHhGiP8e78d3+Rx26rmgMSP4WW1CQ6PMUApY7RBC+YRpzLccEMKDBw+W75EfDNXRTnfccUc5T76QP5ynI46/AyaKs88+W+oB6Zw3b54oMPF0lsTJJ58sHSTaps8n6n/Sdf8IcFbr0EZYxUS9Jn2kNR8THh0C7xZu5C2wig1B/eSTT0oeUS9YPRRCm3vooYckD2jDKFdhuwPSSpvHTBLPRxgxYoS0NZQ92vQ111wj5tIkkEYUQNoR9Z28YBkr7T8fcwtyhDqNnOAenTt3LhdlqyBxjSMNK0OYzd55552ta0Ayyx/iCl9mtFntwjVMhLqGJeecEJYJmY4dO8oEJRNITNbxnTisIuDRrsJHR1Kw8oPJVL+5ChadKYJJz/AaVjWEk1uu4snKByZI2ZjgcUPl6KyVVRyukkV7KVixwAqQENcQZDKQ9+A9w2eAEybyfCb48oV34JnM/JOPrGQIV34wke3fz3VWMikVx3Ve6WvY4isnmKDjvg0bNrSuQdjrrrtOVod4nADI+D6bE15yzgkIKTvX6GTfw8Sjh1UxTK4yec4qiQcffNBeeumlMgHncY0/4/5OUYjOlI7rVGXC1ykAUhcpB+oe+e5xQkjSGT6DYyGsUGFyj4k4/vsJP67bf//90/U3nFgmnygjYLEAE4o8n/JiAi98hl/5EcJkJ9dQZ5iYdp25tBkmYimPm2++OefCgBAmesP38xurojxMzpJm0kjbY3VZOHnqOnZ5LmXFqhMmJkk37d3De4X3pw54aNNOeUuXNxParGDxsJCB8oLmzZun2workmiPQH562cFGm/L5yPXkWZxsecvkMfWBdsOEuX9HJZNyi3nqCkds12i6DGFz4YSAcRVW1meXN2gETL560GAwI+U7OfpXBi0IDRMzgOfWW28V7ZNRlFLYYDJ1gl4029AeX1YY9fBjwPbt20dHlHWdNTo7wZCRCTB+ScfQvbyhj2LYxyobhn6TJk0Ss4rr2aMr/h5gQmIlxT333GM+/PBDsTM7jd30798/ukJRlEKm3DR2bHLY8fgVY9x+B5wfMGCA2KoPOeQQc8opp5SLNhEHjZ1lagh1NFY35JPn/d1m2LGlPvXUU6K9MYJiJQLCXil8mAtgZIamnWRSsjRoS0yMs6pN+WtQboJdURRFWTf4e6mxiqIofwNUsCuKohQYKtgVRVEKDBXsiqIoBYYKdkVRlAJDBbuiKEqBoYJdURSlwEivY8epDu4APPwsf99990276uVn6niR++c//yn7JYHDIpwD4WiJHyEddthh8uvHssT0/CvDD0RwS4w3R7w2krf40sZpUegPPIQ88t7uSgLHaDj4Kgl+dRs6KysLPAPHVzjMyuXlEXDVwA9YcMPqfbcrirJ2SWvseG4jqDLuTtnwsc7P8fGgxq9GEUh4y8sFP2Vv2LCh+IzB4yM/6z/qqKPExevfBTpA/EzjB+f888+XjhHXr94DJt7xcHPr85mNgAT85J9OsTTw0If3Rlz68l38k/MfAUzs1PLwdkca8R+e5Ldr/JL4vPPOE2+biqKsI6CxAyG2whByQFxMp/3ZRYsWiZe2eKiqELw74nUtjJuKBzviMMa9RBYyeLEjfiP54Zk+fXo67/DiuPvuu8tnzy233CLe85JA+D9CoXmPjz40Hp4ZnYCXUGOryooo5mncu6OiKH8NctrY8bWCto4f6dJAk8RHNNqqBy0STTSMWJMLhv9ErJk8ebKMFojQM3DgQLk34EESc5DrLMRPPAE+iKzjtVRCoeFc7JhjjhHvdlOmTBH/5/jE9u/APfBXzXlC6DFKwTFZHPx8E+gBX+P5wDuT3vB7TZo0SfuuJlzaDTfcIJ+B6FKYbHiPJODzhhBxcd837OPFkv+8N94cQwjNdv3118tn8rhjx47yfni/JGwZPuIxG/loWIw8MBkdeOCBEiiF8G+hz3fAxzsO1ti4PuSRRx4RP+SYpLgHacOjJ/nvwT86Iw582BAPAJ/f4XlFUcpIJODTGjuaJht+jgnwXLFiRbts2bJSNXb8kuPfelVwwkP8YuMb2oPvZycU5TPaKP7inYCRffw54yOcUQEMHTpUfFID/p29T+pjjz02HfjaCXJJp/cF/dprr8k7Epg75JNPPhE/495fd1IYpeCfmpEOPtLxe86xksDfOBp7WfEaewjBnY877rhoLwX+s0Of48B3TzrpJOs60uhIKsA4GrvroCSvnKCV40TbZ0QWh0DFvGs4QoFu3brJu/Xo0UP2GVEwCnjrrbdkf+HChRLg+IUXXpB9vo/f8/PPP1/2FUUpOxlqHxFYCD/mN/wvf/DBBxl+vUsCG2uS60oDDZLoKh5s/N5vO7ZkYmtutdVWss9kHR4liariNXIfhg8tEc0eD5Jo5swhAB4PCa7rJ/qckBfNFQ0zBA2WOQLXUURHkoHGzv15HuHD8IqHd0Xs1tnAlTGeF9cWaMpEsvH4kQARfohY5L0DOgEtcyeEeEsKGjsRkIAYqmj93h88kbrwPnjooYfKPhO+RNihfBRFWTUyBDuCkziWbAzdCdGW1FUnAX1zBbVOCgI5jPVJ/FFvamG4j09xhDECnIlaJmc5jskIvMBGwGaL1k4AClaOtGzZMr0hXImyX17wbOJBEg+UQL6sJOK9fBo9mB3YEJirm7ipxIOZKgkIfMxjEyZMiI6UDoI7XKHjo9QDk67EvAzLgbQwgVweE8CK8ncmQ7CjnSFk2LJFXs/F1ltvLbZqlk2GoPXiHz0p2KBLApsvywaHDx9u3nvvPRHGBMQOfU4jVHPB/dHyGRX4DZt00gDHpUGawpiTjGJYBTN37lwZjYTMmDFDRgblDXngRmPRXgr8s2cjn9ibxMUkyn5Ssvnl95AvxBQNy4GNOhR2Boqi5E/mDNwqgGaNFk3YO6+ZYn4oj3XVnqlTp8raeCZOAe0Pc0E+E2516tSR+2BqIigy/9mPa9NMgGIC8hpmUhDeLG1k8tXDSIbRUFyIEgw63w40CQhfnumFO5OepUWyj/P7779nTAAzesPkhXmrPCAgCx01CgHlwEYZkOfxiWFFUfIjowWVJoDRxvnRUrixMgVojAjIBx54wLRu3VpWp2COaNWqlUQXTwKadzziC/cN7by9e/c2Z555prnqqqtE28XEQKeClhpeG37mvxcWrJxhpQ7mHL9iZ+jQocWELho212BKyQfScfzxx0sn16VLFxHy5BNmB9IZsnLlSrE9lwVGAdwX0xL/WT3kIT4lcw577723vCMmK+z4vnyHDBmS/m7Tpk3lXiG8A0KW7/MOF198sbzPlVdemfEOF154ofyIibxlRQ2rmTxhnnvY98dID50+6/yvuOIKMdvwDP2Rk6KsOulfnqL10tD9xGQcLivpBzRoXR4ECvdB4DJxyZC7NPOIBw2f54TmGO6HzdULQISh16LRgrmWDod0cy2aJtf6JZIIIu5LGrxQCtOIsCONvhPwkB88i1/gxs/lgudzX77vf7RDOrMJcNKIAI2bn8aPHx99yg6/5mWiO7RFIxA322yzaM/IOcIEkp8cZ96C59GBka5wJEI5henjO+Qp6SIP2CfvsJGHkIe8r4d7+HCHPIO8DQU1+U6++PflvqSRtFI+5FP4DoqilA0NjbcOwsqfXBDHVVEUpSRUsCuKohQYOkulKIpSYKhgVxRFKTBUsCuKohQYKtgVRVEKDBXsiqIoBYYKdkVRlAJDBbuiKEqBoYJdURSlwEgLdn6n9Osfv5o//pdyqGXdH/u//VE2F6rch++z/c9mOtjKxR9/Bt+LOeYqL/gVfCF4hsVFAM65+Fk+eBcDuDTg5/t+y5aPoTsCT7ZjpYFrgqVLl8pzSiKXkzbqHe4LvOuCOKR90aJFaadm3Gt11QtFKRTSgv39b943Fa+vaA4ZcYjsz1kyR/YrD65sfvkjPw+HcNWUq+T7bFMXTo2Ols45485Jf2/S55Oio+XLmWca07BhtPMXBMGN4ywCeOCYizB/BAvBDwx+cQgejstczrPVrl1b/NbPnDkzuoPJ6mcfh1zex05pIGBxf4zzMVwgXHPNNeKtMS6c8SdzySWXRHuZ4HqZ9I8ePVrSPGjQoAzXxnh6xMkcYfwIpE54Pfzk4GVSUZSSKWaKeWnBS2bpT0vNtC+mRUfKxjF1jzE3tr3RrOf+8uGMvc8wV7W6KtpTsjFp0iTz7LPPmrffflt8v7/zzjviQCt07NW2bVvz8ccfy4ZWT7CPTp06RWdXnRdeeEGcoyHQ8bY5YMAAcUNMxK0Q0pkNHMoRexUvoF27dhXPnQjxR6JIVmjldFacJ7gH8XAR6Lyzoii5yWpjf2fxO2bivInRXhGYVD5f/rkZ9+k4M+6TcWbesnnFzCxfrPzCPP/p8+bn3382J+15UnQ0xYLlC8x7X7+X/g7mmpmLZpqvfvhK9qF1rdamw14lR/Xhu4wmnv3kWfPCvBfMoh8WRWeSgdKKk0oUUz6zffRR6pxThGX/009T+4AC6uSmmTUrtf/NN0X3wAkjAYWWLEmd82ApcDLOPPdc6pqv3OtlsTKIIPw0fFgC0IhxcYuW7L0t4goXzTlX0Ay0Xkwa5QX+5nHJHIJPdf8MvDs++eST4vY4m3dMvs9IIvT+yCgCr5XwnMs8XCoz0vAQxPuQQw4p5g5YUZQYTlAI7y5+167Xbz1b4+YatufEnnbT6ze19e+qbytcV8E6IS3XXDH5CrvBtRtY08/ItsE1G9jzny8KPjx+7ni74bUbps9Xuq6S/H95wctyvuMzHe2Wg7a0v/yeCiT97Y/fyvk+U/rIvufDbz+U4xPmTYiOpHAdgW1xXwu7/jXrp5/B88Z8NCa6onTWXx8Rm7k1ahSddLRsae2GGxIoO7X/ySepay6/PLV/002p/YoVi75foYK177yTOk/c6oMPznwO9xs5MnU+pHXr1hKMOx8WL15sN998c/vjjz9GR1I4DTd9LFswa6e12+233z7as9YJ4ehTEa5jkKDlSSD4NM/0OIFsL7vsMglS7UYOEpT6JpdZv/76q7344oujq4r4888/04GygXu50Ye97777ZP/kk09Ofw7h3jxbUZSSKab6dGnUxQydMdRsvcnWpl7VVKQimLZwmhn82mDTqWEns7LXSrPi8hXmwv0uNPe8fY+Z8vkU89ufv5mOYzuaPbbZw3x+0efmxyt+NE+2fzJvU0wuXMdhpn813Tx0zEPm+17fm68v+dqc0eAMc/zo481/VxZFLMrF/PlE70E7NObzz1MbmrXHjfwNc30LFqT2p0wxpmJFY66KWYdeeik1AYu2TwQ4H6ti0qTUd+66C9/xKQ3/rLOMIfDQ3LmpazyYIh599NFoLxlowvhWj2vB+DMP/brPmzfP3HbbbbJhKiHm6nnnnRedXXXwtc4zMalcffXVEviE6FZo7fhkv/7668W84v2zx0Hr5h1cHZQ0ci2Tt6QV0Oix+cdBwy8tIIyi/N0pJtixjW+w3gamWfVm0ZEUY+aMMZtstIm5vd3tpnKFymaLiluYQQcPkmOPvP+IrGJZ9vMyc8UBV5iaVWqaTTfa1DSt3jT6dvlAh4MgePGzF83FEy42V0650vz4249y7u1FyWyvNWsS95TgEqnPbNWqRScdflJ1+PDU/9GjjalVK/WdkMaNjROwxuyxR6qjePPN1HGC8mOKmTaNiE/GXHFFqgNAd+dYCGHx8g2NhzDE/kw+5ALBiVBlIxIUNmoEcHlDgJM+ffpIpCXs6USeQuAToCQJXEskJiJjVXQ9qLexI8DDIB6KoiSnmGDfeIONRTh3apQ50fbT7z+ZjTd0gsKd91TYoIKpuGFFOcfySOzfm22cPALOdz99F31KhhfiK35ZIRO8bHQoR+9+tPnzf9mj8CchlB8EgyKS3x13EAA6pZlHSmSJIPT9PdDS/f+lS1MbnxH+gTm5zLDaBc02vryQVSpo6V7gY79GQ2dD6BIeLyTb0kY6jKT264/cUMULXjqPPVwPx+Tn9OnT5VhpLFmyxCxcuFA+01mhnWNP577QsmVLCQweh3mJcJJYUZTiZG3FCPZD6qSWPXpa7NhCBPHjsx8X4cH25EdPmiU/LTFta7c1G22wkdl0403NqNmjxCyDoF/+y/Lo2ynQ7v+0f8p5OoExH4+JzhTBcb+Wnmv9Z2hfr73873dQP/P0SU/L9uAxD5qhhw017fdMnUsCEfJ+dH0EcgntmrCtF18cnXQ88EDKHHPuuSkzTPfu0YmAaOm4EzLGvPyyMbvtltr3nQCmGacky/bww6mO4uSTU+c8LFtkywdCx7HChdUwodb+/vvvi7kF4ZwErguDVS9evFgCe4eTmbn4z3/+kxbCHpZKJjWTzJ8/3/z73/+O9lLwfd+xXHDBBWKm8uEFgTQTJ/WNN96IjiiKko1k6pnjtL1PMwfVPMic/vTpZrOBm8nW4akOpnmN5qZzo86m0oaVzFkNzjKPffCY2WLQFmaLgVuYenfWEwHvObTOoeb7X7832w3ZzlQeWNlM/qwo+LHnvOfPM/vdlwqQfdyo4+Q6OgLo0riLqbpJVdP0vqam8qDKsm1/0/Zml6G7pLX5JDjZ4LRFY1hEQqhPJxPN/vtHJx1Vqxon5Ix59VVjWrfOrmlznu9vuaUxrMDr1i11nM4A042TsXJvrtluO2N23TXVmYQQ5Dtc9ZEUbNIEoGbVCdrry65nOeCAA8ysWbOyrkDJRosWLVxaz5V15qxcYUUKQa6TwuqUBx98UL7LaIHVPSzD5LjnR/fC/HiJDoj/fsULNGnSRI49/vjj8g5ce++998px2M5lGmk89thjxY7PD5gYETRu3FjW7SuKUjIb9HPwgUnOKhWrmAN3PlA0azm53gam/rb1TcudWpoN1t/AnFDvBLNftf3Mp999arbbdDtz8yE3i/aMOQba7dJObPOcb1ajmXno2IdMjco1zIE1DxSbfK0ta5kmOzQxMxfPlInXvgf1NVtX2tq03rm12XnLneUe9AN1t65r2tRqI2lptXMr2dZfb30ZFfA90rRgxQL5LqOL+4++X9KelDp1CAhtzGefpYTviBGp/fWCeV7OzZhhTO/emT9mwtIwcWLKXv7xx8bstFNKIz/mmNT3UTjPOceYvfc25osvUvfHzo7Nnk4gBO2UH93szcV5QGBp1nizvpsf7iAU+YHPzjun8pD7on3Xq1c0+R0HrR+Bi2bMmnSENBp/UlMMgnefffYxr7zyihkzZoxM6LKkMgxsjtmEdfR1XIazDBKNm+8Bz6EzYsSCZs7692NcJnIMuzsg1LnfRRddJOnr37+/pFcnTxUlNxrzNMby5az4MIYl2qygYQ06wtlz883G8ENKTNRMniqKoqxrJDbF/B2gi9trL2P43Q/mGQR4KNQVRVH+CqjGHoOJUH5N2rlzymQTh1Uu/LgyT+uJoijKGkMFu6IoSoGhphhFUZQCQwW7oihKgaGCXVEUpcBQwa4oilJgqGBXFEUpMFSwl8LaXDSkC5YURSkLKthzgKMqfJ+sDfexU6ZMMccff7wKd0VR8ibtKwZPf7feemtGuLPvvvvO3HjjjeJCtTQfIvgB4Vr8guCB8K8Ojq0OP/xw8TW+m3fdGICPk3HjxpmddtpJ/KSE4FgLh1icJ4A0Tq7w3eLzEI+FOO565plnJF4pXg25j/eRArVq1TKzZ88WPyo4CgvPlQf4ZqfzIB0zZswQvy6EnkvqRCwJuN0lIDUh7srCTTfdJI7A1hQ333yzeK2kPLKVubLuQ3u7++67xW8SsQL+tvADJXjvvfds5cqVo70UrrHbChUqWFfRoyMlQ7iyatWqyX0KAcK5DRw4MNorzpdffmm7du1qXecXHUlBuLeePXtaJzBln1Bu3Oe5556TfULF9e/f344YMULCw8FDDz0k4ezikKf16tWTcihvXMWX/zxj6tSptkGDBrZ79+5yrLzgvbp06RLt5Y9P45rk/vvvt926dYv2lL8STrm0Bx10kN1uu+3sNddcEx39e1JmU4z7bvSpbPD9XPco7XwSyvp9vkfYuvPPPz86kgka+A033BDtZeKDNOMpEfBv7joJ8aCISQeNgsAUp512WlqDJxwcI6a4b3a8GKJVc21540cAPIMRmeuQzX333VcsAEdp5VDa+TVBeaQxyfnSroGk1ynlD8FniEtw++23y8jr70xiwU6mEWIN96p77rmnxLZEgI0mdlwJ4GubazHpQK9evSS6/sEHHyymhurVq5sOHTrIOQ++xnfddVcxTTCcIrCCt3Ej4F5//XX5fMYZZ8iQC3Dv+tJLL4mJo1mzZmbBggXiDpd78BxcvuYD4d3at29v3AgmOlIEodswz5TkRx3f4XHzAWYdQIiSF6QrDuYKpzlHe0VsueWW5rPPPjNf4WYyxpw5c8SPOp3JqrJixQp5ljcr0dHglpcyIL2UI2YjD2Vy3HHHmZo1a8p50v8w/osdlAOmDHzGjxo1Sj6zERe1PCHNlLdPI26KMf14xo8fL/WANFJfySsafUjfvn3lOOepdxPxyRzw6quvSnQozvMc3tl3wJhueK+6deuKX3ryiHRwbTwIibL6ISYAZXnCCSeY5cuXpyN0/S1x2oVQmimG6PVVqlSxRx55pESkhwkTJlhX6eUzQ3pvimFIdOutt0pUfCeQ5Dx07NjRHnroodb1prL//fff24YNG9o33nhD9ocNG2Zd52GdoJJ9TBXnnnuuPf3002V/yJAhYuYAhumuAK3TMO2mm25qXU8t6eIdiPzvGr1ch0nEFbZ8TgrDOG9KiTN79mxJH++bzRQTh3y7+uqrrRM4sv/KK6/YoUOHyucQjmG6yAbDS59HITz7gQcesCtXroyOJGfzzTe3Z511lmyuw7TbbrttOo1Lly61rkO0TzzxRNpc9Nprr9mtt95aygyoB5deeqmYnmDevHl27733tq4zl31YnaYY13CtE9jWdSbpNMyYMUPqwqJFi2Sfujh9+nT5DNRnJ7ytGzXJ/r///W97wAEHpOsoZXXyySenTTFct9VWW9lZs2bJPmV+5ZVXSh2mjnt22GEHe/jhh0vdAJ9nyprlsMMOs+PGjZPPmBUvu+wy+fx3JC9TDFFsBg8enJ4cZcUIsStD3D0lQj3aG5qzE/bRmSJcAch/J1xE8yVgBBBBBw3Ka7SYKtDKMUegnfE9AibTGzMZyf0JMoFG7INCM3GJ1r8FoYscmERIdz58+OGHGQEjQrxWlgQm4QiAgRbRqFEjOYYGSRg6JiuZcGZDE/7222/lczbQGHnPOEwOEdwi28iiNDARMbJo3ry5aLpEJWIyl/IjeEbVqlVF8/HmIkZrBJxG66YsiNZEXfCTrUyaMw/P+64JmJj1Ji2fhn333VcmXK+77jrZb9CggURkYhTF6IbRCOVAaD20boJ2cL2vowQwYTTpIXQf+Uv5UZaMUvgOo8awrKh/rkOQugGlLTRQyh9GwsiJpk1TAfRZ+ID58+9KRg2kUWfD22MJOByPyhNfReE0GhHsNPJs8TMxoYTQOL2pggaYbTUCQ2kEIcLm888/l9Um7dq1M5tssomEW+MeBHkG/vsG5sk34o7T+orZu/MFW7XTpuVeRDvyYO4g6pHThiUykNN6pSNBoJTUYThNslxXqwCd8znnnCOBrhHYCDE25gAwK2SL6kQnidAnvXQ2cQGGICVS0pqANBKgO54G8tEH1MaMgtB2Izh5V8ph8uTJUs8xLSKsKY+SwCRHbFnywm+sGvNKhIf2sTrmQZTksIKMzpZyQAFkDozyC2Pm/p1ItwqEsNdKPF6geMGYREDS0LB1YaMms+NUJDp0CaB50mDjYF/GVo4wIp3Y7lmax4ZtHRu7b+DlIQARYGikZQXBMXToUEkvGh+dhBsWSv4C4eGw03MNdloEzrRp0zKWmoZge18TS7fohIhDSgfOXEocJlgRbnS+rPGPQ0MKRzoIPN9pA/nCaKWkkUk+IFzR2uPKyNtvvy31guOMBqmDXPfaa6/Jduihh8p11CPqCiO8kkChYAKd9wo36ndYz/JVHJTy56GHHjJ33nmnaOnMrbz44oumc+fOJS5yKHhcAxDcUN+6ypq2s2InxIbdt29f2cf+WL16dfkcwtIi8DZ214hkH5u306TT+4CN/amnnor2Urhhs3XDe/nsCsE6oSr38vTo0cMed9xx0Z619evXl/ti0x01apR1Gpd9/vnn5Rw2dp+eEGyg+cASRezauSCN2Wzs5BvvMXLkyLTtl/+XXHKJ5CFgp+Y6cELOjh07VuYXssG1zBtQPnG+/fZbe9ttt4m9OV+wT3tIA0seK1WqZJcsWSLvhK3a24xhzpw5Yof3cxfkjxuZyWdgrqNRo0Z2+PDh0RFrv/nmG+tGUOm0s0S0bt26iW3QuWzspMMpCRk2dDeak+ctWLBA0uM61vR8EGBT5x3vuOMO2cc+37x5c7kWSBf289DGzrySn1cAnucUiQwbO/VeWXtQF5gL8eXoYV4IeRA//ncgrbGjrfFDFX7tiJkDWyRacPT7JQEbZJzwGJ+9JoNmh80LDYnhPXgtKQS7p1+J0bNnT3P00UeLvZbAxtwDU4tf/QKnnHKKmFvQpljFgPZHAGQP5pk42dKdC9LphFLGCosQbOLXXnutpBuNmxGEh1EOs/Foitdcc438EIj/rnJFVxjRhq+44grRMMhfzAKdOnWKzmbiOkLJF8onDtov98G+mC/MU2BWY2O1x8CBA8X2TN4yOkDzxcbO6IW5FFaDsCLIz134ANTUE0ZMmJHOPvts0ZI8aP6kj3LE5sm1BL6Om09KIkxjuDEKIB3k8bnnnivlT51t27atrIAiLZQNeY/JiPQxn8D1BPH2GjZmQfbR8Hk/bPSsaMG0B6SXsqU+cn/mITCfYcNnNMIP+kgPdZT/vL+y5mFEy8okL0c8lCttizmhvxtZIyhhjkEAJ22AqwMKBAG7tmDYjkBmWLe6htrkc7wyhjA5jHCho/AT1msaOk6qSLxD9nCOssplYgM6Ni8wyxvSyFZSOSWpS3QWucqZ8+SBn29SlHWZrJIbYbM2hTqsTaEO/GiHHh+NEKGxOsgl1Fklc+KJJ8ok69oS6kA9KEmoA4KuNKEOq0uoA2nMJZST1KXSOm/Oq1BX/ipozNNSYKUIP5Ja0zBJx+oTzAiKoij5oIJdURSlwFi79hZFURSl3FHBriiKUmCoYFcURSkwVLAriqIUGCrYFUVRCgwV7IqiKAWGCnZFUZQCI72OHX/f+EbBp4b/pd4XX3whXvzwOpjvL1HxZIjvEcC9apUqVeRzafDMefPmya/8+PVnab8IXF3ghwVfJYC7YDbw6YuDfxXc1gJZin8cPCXipwaf5+zzn5+mZ4uUBPi72GGHHaK93PAMIisRpo9fhuL9Mv4LS67hh074gsn260vSxy9cuY7yIaJVUsiHbC5R8bWCXxvcLIcufL075bAehfnEcfKPyE0+H4H74FqB+sAvgbP59we8ghJJCr/x+cCvislH3A5Q1/A/lK2u42ICHzSha2XSTzBwD9/nHeOeOHknvIVyPZ49iUy1roGXS/KQNPJLZ+pMPvA96gR+cygr8mlt/mL6705asBMrkAqHi1Nf8XD+hE9rnOgk+dl4CI0M50w0bnxg40wqCQRqwDEWATxwxOWdTq0pyA4E79NPP232228/cblLh0eACYTTLbfcIp/jjbdNmzbiOpTvH3nkkeLiFncE+JpBcJB/CCgaEK5tQwHOd3hXgpMQsKE0EEa4/aWTIF9xxsX3Bw0alCHA6VxxIIa/9bjQxskXTr0QlrwLftbPOuss07hx4+iK3OD8jLKNd7w4ASMwBe+OOwSEPO9HWugIEOL+2JAhQ8T52L/+9S9JD/mMMy0vLHFrjH9/YsJSHygT3LHG3RuTHzjoohOjQ04KacChF0KdDgHhTfkQfCN0gYCfG1xK45iOXyJ78PVDx+07G8oDh2zkq/+1MsoBDuvwE0+nh5Myyg4//OuKiwIc1+GsDXfMOG4jH3DahlO1pGkkXi6dMO2AsIAoPzhhS6qoKOWMq9wCYcRwg9q+fXvZxwUq+05QSGi8suAanHWVucQwcyXhGpo817uIXZMsXLhQXBW7RhodSbmk9TiBZs8+++xorzhOeInrWN4ByANCCHp3woSx23333eWzhxB0uItNCmXlGlKG+1vcITvBF+2l4L6EpsNdbhxCDIbufiljwonhsjgJTvhZ14CjveLg0vjRRx+N9lKuiwnBd/fdd8v+xIkTrRMk6XwCQttR7uDzcdmyZbIPlI3r6DPc6IITShLSjlCM+fDkk0/a0aNHZ7hQJtQg7n1DLr/8cnvjjTeK+2fvehmoF04zjfZSkNe4N+ZeuAzGdbDrtKKzVtwiO2FpP/300+jI2oV3IMRhmB7e8cILL0yHqCwNXDrfeeedGfWROo9bZGXtkDHmRPt68803RfsjqC+uTOPcdddd4tqXjRB0cdCocPfKeVzbumdEZ1Lf5f4huHENtaAkoF1wf55DhJtsEGIP74z5gptctCnAlESQj1zOuuLwvmhyaPqAxoMW40PGoeHh7tWDKQWtMXT9WxpoQ9wzNBkw9PXue/lP0GZGYSWlHU0qNI8xouB+aKf5gJZKevz7lgTmIkYDPig3+UwQklAzxm2uN8P0799fXOT6CEfcH80ezf+5556TY4CGzr2I2pUPlBGjUcx9Ph8xR2IyQWOlXABt/o477jBHHHGEjOBKKydGRowgqAdE+yL/Q9MSaSXfQ1fUq8LFF18s7xFCmRDohlFzafDOpJfA9B7cUlMuPhJVaTAiZeQX1kdMTtxbWTtkCHYKBr/TmCKIf0l8xxAqC2aV8847Tzai/lDhPVRWhs74VMcEQKxROgkPw23fsD3EosTZVRJobF440MgZ7mL+yNao8b2d9L4ehBp2RmJaEtYOUwMdHJ2Eb+ilgYDElk4+Ylqh0dBh+nyioXPOM2DAAMmvXCHa4tCpYVMH0ky+IjD8M4gig40Uk1bY2EIQCIAA4p3pIIkPShzapDz//POSTwhDht3cg/f1YIagrBBwI0eOlGswqwDmo7DueHzHT/hDBD0gqEgv9mvqHWULvHvr1q2l3sVNY6WBwOa+3tRHWEanlRunnYvZBZMR0HHQqZDfmCdoFyGc4x3JQ8oBU1SHDh0k38kXojh5c9WIESNEiaHOl1c8TkxXtNOwY+W5xBEuKW5vCMIff/negyfmMNo15kYiRSWBfPHmMdJBx+BGQ9JpKmsJ17AFhvdE6mH4RXQc12Akqrs3xTjBYV1BRVcXcfDBB1vXoOUaohnNnTs3OlPcFFNaBCVPSaaYKVOm2D322EPu6yHaD9cyTF9VeB4mhHvuuSc6ksIJeutGH/JcTDFE+N9ll13S23/+85/oyiJuueUWic5D2h588MESTRyuUWVEKsoX0tOnTx+J7OMaVXQ0BeYP1wFmNcV4XnrpJes6AIng5IRZdLR0MGOEJgbAXDFp0iT5TD46Lc62bdtWtoYNG9rBgwenTRlOSNuvv/5aPgNDeYb/bM8++6yYOJwmKu9E+k499VTJf9cRyjvB0KFDrROk8pmyy8cUw/WukxBTBKadgQMHWqd5yjmeN3/+fPnMO2G2AvKHaEnkK/BdzJX+Hf/xj3/YffbZRyIvAeYqygYwk1EfgPqNuaY8cB2PRBTjv4c8POecc6K93NCmvAkPGUD+esoS5X/QoEG2d+/eYmrDnKasHYqpcwzpXaWXXjgEzTWM4O7BrSyTWmhPaKNMnK0uRo0aJZODTGKh5bIx4YeWkM+kWUmgWaFpEeA5hGEm2rtfBYKfdCbq/Ebw3Djdu3cXzZ+8xCTE6MLld3Q2BfuYTeLBt/MBTRazBRqj62Cio8lh0pERCdF/wkhPTCIyAeoEdHoLYdQQn2jFPIQ26unVq5fUGza0OMwUaLPAyIa88RBblMlS8p+VWGiQmF0Y0TChT8QmzFoM76lnTNAxOmRUgrbN6IDRAp+ZDPTce++9Ge+AJgt+UpCRGKYWNGs/CqI+kQ7ux+Rujx495L58Bw0Z86GHyUb/jq5Tk7Qyec4oBc2feoNJjHtQH4CRQrZIX2WB2K+MgjC9AelkIpP3TgLtiTxFc2eym4l24N1LMuPlghEPZcaIiFGksnbIOk6n8rteP9pLgc2NChmHYzRSoDDzJVtQ5JJgNQV2dSpxuCFcQztmWeH+2ZZlenNGXDBng2EsJhgPeYMQIug2y95CMEewvC5fnEabIbyASPwIlyTQmYwdOzbaS0EjxpzBkjVgqRomLhqp30JYFRMHIZGtjnjoDBB+dB7169cXs14c5mhYjYUSgVkDc1ooIDB3+I4QUw4mP+oq8yJ0RnwmfzysMgrfwZsMKBc6Dzo1TGNh58qSPWzECGnqNEKZ+7KxX1qA5GbNmok5k2W+CEveh3t56BjoUMsLyol2gFCnA8xnyScrYeh0CdPI3JWH+SXOJYFypC6HoBh6k5my5skq2NFCvLD2oB3HhQGwtIs4pFyP8KeSlATaBfY/D5MucZtlLojmj3ZF+lhCxlajRg3RNhAq5QFLvOJpwoaK0GcrDTRAhAXapgftB4EXX9eL0CrLcjAEEvbtEJZSspwuCXReTBDGJ7fY9zZ2OjNstOEWwuglPoeBfTxXR4WwII3UE2KNxicQEYbkG1oxE+90hCyJ9PZfBC5xeRmxcQ12e78xOc178dmPCoD3Cd/Bx78lDQheRpj895Cv2Jy5jk6Ieh8+h/qONk6ZlgQdOZOR3Js0c09vyyePL7nkEtOtWzfZLw94r913313yD6WCvEsKowpGKMTc9aMIJpZp68wVJSUeHxj7PMuDlbXDBm4oK9GqmeRkja0figGaHY2PITW9N4KYz0wsUYkYdjHBxeoFGh+V65xzzpHKzHlWEDBjT9BghDANDy2MioRgGT58uGhmNDImwYAKQuVkLTP3ZIhNQGJAoKNRDhs2TAQZz2CFCT+yQSD74TWwvhvtxU/WJYXOh1UX5AfPoJFiakIzREggnNAqWVfN8/2GKQiTDY3+448/lolEzCOcQ9MbPHhwejLQg6ZDXjF0zwcmRpmcQvCRHwhYGiJaq++QST95TwMjXxCYfi07QpvGywQlWi4jHsqKya6kP56h0TIZiPbN98kX7oWGzP25N2v5eT55gBntsssuk1EF2jB1BS2PlVW8A9fQIdJx0znQCSI8MTNRvrwL92ZlFatTQnh3tHquYVTFu4WrPEoCgY7Q5fmYTEgPK0Ew2aAoYJLDPES981CHeRZlTX6yoon67OsBdR1tlXtQFvzgDzMcHSF1nt9BcAwToh8JriqULxPftD06kKhJF4PrSAcjCA9tjPpEm0MpYQRN/eYYbShsU8B7MboJJ/vJa0akaOjUO+oDoxIUsXwntZXyIf0DJeydFCj2Yw9Chx/YMIT2WhOBldE4+BqVml9LhlBxsH1yHcNDNHiGpr5xIACx3dJ4abQIQrRZtCRAEIRaPxpefGjJNVRe0sB/hEQctC0aDnbfsoD2iXaI1hXa0PkRRjis9qB50xB4P7QyND5+iMLQnQ4s26/w6DQQuEl/FBSHThCBim043jlQnuSTB4EUH1ozdGd0giBEy833x2AIAswedDCHHnpoRjlgMvG/0KXu0GFk0+bJS8qQjh9NM54GOknyESGJUEfDjIMwDpf2oc37+pQEzGf8AhbzECYSLwBpD9lCE/JevDMdIR2Wh46ffIj/aIt7oRjwHRSjeMdUXlAW1FfePxvUY9oyylUc6ikKDIoU11Ee2aBNszoOBSgOZUXHTaePyRSFTVk7aGg8RVGUAqN8xoKKoijKOoMKdkVRlAJDBbuiKEqBoYJdURSlwFDBriiKUmCoYFcURSkwVLAriqIUGCrYFUVRCgwV7IqiKAWGCnZltYK/F1wP4LagrOCPhnuUFVxW4LpBf2St/F1IuxTAkVToVwX/Hvhowe1oeYMPEwJd4+MjibOmpODbJps/eHxWeHe0HhxY4TkQR1VxR0dK+YDvELwu4oeE+oQvFvy+5wMucvGuSTXF/w5O6vB7kxR8k1O3Ee449sLPyery1aIo6wwIdiB6CpGBnHCUiDJO+NqLLrrIOmEfXVF+ENCZCDw8qzzhvgQc5r7xLQ7RcsaNGxftKeUNdahXr14SJenPP/+0P/74o0QpikddygURiIii5LR9iVpEZKK+fftGZ0uHoNSuY5GIRaSBtPTr12+dCSStKKuLDFMMmiteCPFShyc+H9c0HAYT4AFXp7hlDX2Oe9DO8KyIp7i4lgw+QARudrN5PAS8DuIaFY99DOXjQSVy4d8hvoXgbQ8f1nhjDHH5Ia5n2fy74coVF6Q+2g/f5RzRinhXNvIjjDzkfXVznTdB8JlrPVxP3EtcBHPPEJ8GridNU6ZMkeuIIRuCZ0zc9+JOORv+fdBW84HnxtMEvAv3SwKeEQmGjotevGziyx4PlEQTSgp5jgdFvCWi8Tdq1Ejy0XXU0RW5of7gDpoRG2nw7oIZSShKIZM2xdDgiC7jhQeH8c+Oq1TcwyIw8feMm1Uf0IFQX5zHFSjX454Wv+PeZSoCGfe9BNfwYbYINYYJBuGfTWDjUxyBR8dCh4I7XHw8IzxLA6GD73aG7rnA7TBp5/owWATudgkagh91BAICEyHHEJ6OgGE9JiQfcIP3wG0xHSGCGn/guDzFLSp5gt9rIjsRJBlf7Lhs5Tjh7PA3712j4uKWKDj48gZcxVIep512mnRw5AWCieP4lydNBJtAwOEOGX/lpInOJnQZi2Ak/3C9nE/EHiJoEXiBjjk0U+E7n0hNoc/+kqAzIc1sQKdA4HH8mCcJ4EB94h5heDZ8hT/yyCPi5jeJ+YzA0XQIuJAFOgX897OfzYWwohQMCHbAFMPuFltsIZsTZrZWrVrpwL3ghFf0KQVDWoL7gms0tkqVKhIMO8QJ5+hTJgS+jnP33XdLUGCn8UZHUoF5Dz/88GgvN5hinIBLB0VmI0hyNiZOnGjr1asX7WXiBJAERn7mmWeiI0UQ0Jt7Oo1W8gvTAundZptt5LwTPBJgmWPcg+sxJZBPPsixE8zy3zNv3rxiwY0JtFyjRg27ZMmS6EgRrmNKB3cG/nfp0sVeffXVsu/hOGaosAyTwPWUjxutREes/eijj6R8y8Lll18u74P5zac5HwgWfsEFF9gePXqIiScpvMeAAQPsueeeKwGwu3btmg62rSiFTIZgx8a+fPly2RAoQ4YMEeEXb4yLFi2yb7zxhl22bJl1w1s55oVXs2bNEtkwswl2N2KQxh+yYMECsfUnAcFOepzGnt5KirxfmmAnwn42IYSg5rt0WE4blfQBtn1wWrLdeeedRVjTSdWpU0ci81euXLlYWpymbWfMmCH/q1atGh1NgSA87rjjor0ieG6lSpUk70N414033rhYp1FWxowZIx2Lp3///rZdu3bRXn4gjBcvXmzPP/9860YB0dHk8M7k68MPP1xiR52NkSNHirLA8+mIqddXXHGFnTt3bnSFohQmxWzsrDhgIwqK05IkYhCmCYbF2KQxdWBGIBoMod0wlwAmAEJjYeZw2pEMgbFtE1EmqU0Uuy4mjxBCdDF8TgrPdR1MeovfLymsECppuB+aO+LXEOkHcxZmEVYVYW7BDIHJhLRgsuHexGrFREJINkw4mFfiZDNZYL7ifsx/YKrxG2HnMDFwrjzAdEPaMEcR+o2Qdffcc090Nj8wVRFxh4hZDzzwQHQ0OZjCiKyEqYqQhGG0pJLA7EJ9JLwdzyeeJ/WaCGFhsGtFKURyrmOnQYPrAGTZGo2LcG7EnsTGi83VXwPEQUS4YCOnI8A2zkQoNtskIAQJR7cuEA9vlhS+R/g27LuEvMMmz9zDUUcdJeeZdKajw36NoCIfsVu70YGcD8mWBsqADgtBTkzXcCPOapKA20mgLOnYsWkT/o1wazvttFN0tnToCOKBzel0s3Vg2WD+A1t6HDrSsM7lguu8jd9DGqibilLIZNR6KvycOXNEeBN4l4lOVhGgbdLQieeJtoSgZ8KPYLW+kaBJMnHIaggaJYIK4cXEHt/1oP3zDP8sNDAPE4huqC2aLJonQbNZa86EannCahImdREyvKsfdSAISBOaKoG8+exXuyQFwcGEKrFIWcXBJCyTjQhwQHMkrqRfycI6eoKBk6censs1dIyMmEKhj6BCiDMSYsUS53gfJmSJXxpCmXTv3l2CC5cFRkrEuKRM0HyzQcfNbx18Hnro/OlofPopS4S97+A8nCMPeN8QOkc6KbRrOkLqC++LYGcUF0JdZRQZwpp36i1poz4CdZeRVNKA3YrylwV7DDA5xmSp32rXrm2dQJX1v+AaoHVCQuzH2F533XVX6wSK3XfffeU8uMZlnVCzTrOTa7jPiBEjMmzVTGSFz8GOHzJ//nzrOhP5Ps867bTTxH6fBGyp2PhLwwnZjDTw7oAdNzzOxjuGtG/f3r7++utiy8Z+jm0bmjZtKv/Baei2efPm8pnv77LLLmJjBvKCtdhudCLvyLvy/CZNmsh54L7++XvvvbfY6OMwJ0IZcA/u1bNnz2JzAsw5UB7Mh5SVI488UtIWv7eHdJBO5gniYE+/6qqrZPLUdW6yJj1+H8r22muvtbNmzYqOFOGEub3nnntkPTyb6/hlkj7O2WefbTt06BDtFcG9hw0bJs8O06AohU5GMOvgo5DNxuwaplyH5sh5PofXse83f00Ix+Nku4bncDw+lC4Nvhu/X5x4GuLpD8mWNn+spM+Q6xzkykc+h8S/6+G60vIp27Pzwacl1z1IQ67n+zTkeo9c9/f3yPUMyHV//4xcz1GUQiFDsCuKoih/ffJThxVFUZR1HhXsiqIoBYYKdkVRlAJDBbuiKEqBoYJdURSlwFDBriiKUmCoYFcURSkwVLAriqIUGCrYFUVRCoy0YF+wYoE5/t/Hmwffe1D2f/ztR9nv8GQH8/uf+buCHfnBSPk+20dLPoqOls4dM+5If++9r9+LjirZwD0yUZpOPfVUccZF9Cccm+GIjUhNfsOJGg7FQnD7Gwenbvk4PSPiFFGlcBZGtC1c5WaDwOEl8dJLL5nbbrvNDB06VByGxSFyFs7l2rVrJ+EBed7UqVOjs4qiZCMt2Ff8ssKM+XiMuXLyleZP+6eZ8dUM2X/mk2dkP19mfztbvs+25KciD46lMXPxzPT3vv2/b6OjSggCFQ+HeD/s0aOHuAfebbfdxJMhHirx9ohHR1wGs+Fbnw4A75mebKEGEZxJXeJ+9dVX4nmzVq1aInirV68u3kC9J0UPwhpPoHHwZHH33XeL9098vxM6kPitr7zySnSFEbe9hFqkw+natauEYeQYXkMVRckBvmLg3cXvWtPPyDZnyRzb76V+8rnCdRXsz78X96iXhKX/t9Su1289+/KCl6Mjyfjw2w/l2RPmTYiOKCF42bzyyiszPCVOnz5dIjoRKQiPiPHoS0R6csI32rN2xx13jD4VQUjEbJ4ks4EHS6c5R3spnOC1TgOP9qyE5bvuuuuyRsAiihHnQvByiadH+O6778RLaOg1kvfdc8897WOPPRYdURQlG8Vs7Bust4F5e9HbZtzccWajDYoCCcOyn5eZbuO7ma0GbyVbl+e6ZGjjmGx6T+ot52reWtO8teit6EyKyyddbhrd08j89mdquP/dz9+ZOrfXMbe+kTxC0lc/fGWOGXWM2XLwlqbqjVXN1S9dnb5fEtq2NebCC435z3+M2W47Y7baypjQjfnSpcZcc41xGig+wY2pXduYKVOik44OHYwhNnKLFsYQd+KRRwhKYUyfPtEFjkWLjGnfPnW8alU0TyL6RCcDiHyENpoP+D0fNmyYmFdCT4UEicbPeEkeEGvUqFFu0ZUAv/L46s+Gq1cSvaiPy5SmTZtmTRPv4YR0tJci9L6INt/eZWJVMjCCc67DkmAjiqKUTEaLc83KtKnVxtw7817zzuJ3zOG7HB6dSbHf8P3EBn763qebDnt1MMPfGW72u3e/6Kwxh4883AyaNsjU3aauObPBmeawxw5zQ4Ai55FL/m+J2PJp+IC718+WfyYCPgl0LLsO3dU8+8mzplPDTqZFjRam/6v9ze537J6+Z2kwisdEe9JJxglHBIxxwoII+Knz8+alBDGC+5ZbjNl4Y6Lzp47DV18Z8/TTxjRsmLpX9+6E7zPmzjtT5wkQVL++MU88YcwZZxjTunWqo2jUKHU+BLNHvsKWkISE3yNcXAhhCGfOnCnnskFEJ8LTlRfY873QxbaOnZzgJJh+eCdMPX379pUoW9mgIzr22GOjPSPhATG1dKDndGB7b9asmXwOIbzeEUccEe0pipKNYqrUuU3ONVMXTjWNd2hsKm5YJCSGvT3MzF8+37x85svmtsNuM3cdcZeZ2nGqWbBygRny+hDz0+8/mTe/fNN0a9rNvHb2a+aa1teYr3p8JZ1FeXHT9JvMz7//bD7r9pkZcsgQ88zJz5gJp00w/13xX/PO15lh2HKBECeoUM+eRFNKHfOCe999U9o1gvmQQ4x57DE00NS+h1Ckl1yS+kw4VjoGH9bVyR2zbBm2ZeOEHQLVmOnTU/uxID/m8ccfl7Bz+UBngAZcml/xSZMmSXxaNuzfxCt96qmnorPlB3FqiUrE5Cy2fCJIbex6w8svvzwjclZJ0CEz2fv+++9L1CQfDpDoT9xHUZT8KSbY61WtZ3asvKNpvmNmIGUmNbfbdDvTqmar6IgxLXdqabbfbHvz+hevmz/+94cI98N2Ocysv17qthU2yNQq4/zPFo/zmYsX578o//e8a0+zyYBNzKYDNhWzDKMCOpWk7L+/cdpr6jPmGPBhMBH4nEemYGpp0iR1PFSsQ6UYq0AoY8eNS/0n+tommxhDCNI2bVKdg1OoVxlCvhEmrrRJTgKPE56PjQlMQsftsssu0dnygwlcVt4wMbvRRhuZiRMnRmeSQQfVtm1bWeGDWerhhx+W45iOGAEoipI/xY2fjg/O/8AMPnhwtJei6iZVzfe/fi+rZzx8XvnLShH4NNAN19/QfP3j19HZ4nANQtibZ/JZBgk7V0nFunzs+MfM0yc9LdszHZ4xL5z2gmlXp52cSwK282yw0s/JQ9G+EcKE4Zw1KzpZAnHzMTZ5QNPHZOO3F14wJgp7ukoQxxP7dhgrFliNcuONN4p5CxCy2KLZMNPENXw0bR+v1sM1SbVkBDBLLD18lxUyrJZJAnFOiWcawkqflStXymc6C4Kix2FZ5IIFC6I9RVGykVWwb1FhiwwzDJxS/xQRyMeOOtZ88t0n5tPvPjVnjDlDtO4ujbvI9dU2r2Z6TOgh9vl5y+aZp+Y8lRbiUKtKLfPLH7+YWd/MMh8v/djcMO2G6EwRX33/lZm7LBV8GXs8yya9/bzPAX1kNPDBNx/IvWpXqW1++u0nM33hdFNzy5pyzargRv9OSzSmTh1s1saw9NvJkby4wb0S1oQZM9z71krdC5zinBb6HpYl5iukMFWwzJC1637dODZtlgVyr5ImT+NgJsGuDeQvgaYJkI0pJQl8Bzu4hw7lww8/FE07CWj6M1wmhWvfP/7447T55qSTTpIg1a+//rrsA8Go6bwYtSiKUjLJpIBjr233Mg8e/aB55b+vmLp31JUJy+fmPmduP+x203CHhmaj9TcyMzrNEMHd+N7GMsnZ7+V+0bdTnFjvRDnf9L6mZo879zD71SiaePX0eamPdB7QdVxXU//u+ua3/6VWvTTYvoG5/+j7Td+X+8rzd7tjN/PP0f/MOUrIhypVjLn66pR2jRCuW7doUjUpWDuGDzdm0CBjWDSy667GtHODCVbKxOnUqZPp3LlztJccJi4RgEyGNmnSxFSrVs2MHDnS3H777dEVpcMPiljbXr9+fTHRYAq5hdnihLCi54MPPjAXX3yxe9dB8p9RAmYVDxO2PXv2lNEB/9n37OoyhufzPSZEr7rqKnP//fdLOjzY7pmMZfVNvXr1XJnUdiOhx8x23n6mKEpW0jFPWTKItlyjco30Mkd+IITdHBOInwRd/vNy0cah9pa1zdabbC2fPZhnOF9po0pmt612M1/+8KXZYbMd0iMAVrbM/W6u2OarV65uvlj5halSqYrZsmJKU1v601Lzw6/RTGREzSo1M0wJXMOEKaOBHTbfwVTfvHp0pnS+/DJlP9922+iAA6WZfWziWDIQ5ix73GGH1LJHrAsIfbbFizE7GLPNNql78T1MOCtWuHQGgwY0f+7L/ZzclS1mDZEVLlCW1SoUGxo6k5ZVXMIQlF7b/uGHH0QTxmyTC8w53INRQF3Xi+WrCWPn5x5MdG6++eZm6623zhgx8EMqfgnrYSUPZqEQ0ootne8hsOOrfTDNzJs3T0YE/AhLlzoqSuloMGtFUZQCI7EpRlEURflroIJdURSlwFDBriiKUmCoYFcURSkwVLAriqIUGCrYFUVRCgwV7IqiKAWGCnZFUZQCQwW7oihKgVFMsOPxD+dM3sue8vcAh2u4Pv6/3/4vOqIkhTZDXNdVcTOMd05cLBNZanWA+4d33nlHXEiUldLSiAsJzi/FH0cJfPTRR2bOnDnRXnEIps49yip/ePabb74priqygYuLVbk/fPnll1Le+QR+X+PgUgBcwdsbbrjB7rfffva0006zrVq1sqeffrrdZpttoivKD2Jbrr/++hL3Ml+Iydm2bVu7/fbb2xEjRkRH1x1c5bY1atSI9tZ9FixfYPcZtk863u3Yj8dGZ9YsxDpt3LixbdKkSXSkdJyAsccee6ytV6+e7dixY3R0zfL444/bvfbay5566qn2iCOOsOeee65t1KhRdLZ0li1bJt/9xz/+Ie2Ndxk4cGB0tnReffVVu8kmm0ibYGvQoIHc7+efi+IUP/DAA3bXXXeV4yeeeKLdf//97bx58+Qc7alKlSr2008/lX1AFnDMdQSyv2LFCklbmzZt5B577LFHRrxarj/nnHPsvvvuK9cdcsgh9vDDD7eLFy+OrrB20qRJtm7duvL8f/7zn3a33XazTsBHZ1PP6Nq1qz3wwANF/iCHLrvssuhsJj169LAVKlSw33zzTXQkFSOX57LxfepRz549o7MpBg0aJGkgjS1atJB34blxDjrooKxxdT/77DO57zHHHCPfJU8fffTR6Oy6RVqwf/LJJ7ZixYoSgBgoLIIQb7XVVrJfnlDpXK8pDbOsUEEeeeSRaG/dAcG+ww47RHvrPqc8dYqtMqiK/fCbD+3XP3xd5sDl5cHkyZPzEooegnefddZZ0d6aw2nqUtZLliyJjlgRyrVq1Yr2Sufiiy+2Z5xxRrSX6qz22WcfO27cuOhIbhDs4fNot1dffbUILj477VXOO207usLa8ePH24MPPlg+I9grV65cTLBzbObMmbJ/1VVX2Q4dOqSDpyMjateubceOTSkBw4YNs0cddVRGcHU6uEsvvVQ+Oy3arrfeeva///2v7MOLL74onQd5CBdeeKHt06ePfPZ8/fXX0aciJkyYYOvUqWM32mijDMF+ySWX2CuuuCKdBqdN24YNG8r7w9NPPy2Kg9PYZR+OPvpo261bt2gvBR0Qac0msOk0wnJBMUXBDN97XSFtimEYRQAH/GQD3vYuuOCCDG967noZ4jgNwNx7770ynOGYP0fgBYajDFHwLsh1BEYIhz08BzeueCOMe/IDhkqESXOjBzNlypRyH+6QFobO/MfNLa5h2feQPlexo70UpAEPhsD3GJISbJm8WL58uXzmeyG8I25oXYXKOnTlfq5jknzkHj4fgTxk43tsXEdacw1x4/xp/xTPmYOmDjKT5k8qFvAb98nf/fSdmfrfqWbXrXY12222nQRKIZh5EsiH+fPnyzuSX9OmTZO8DPMOP/EEtcaHOvFY4/Fd8diId0jcBU+fPr1Y4I+w3njIq3zgmfh0pz7h/z5etkA6yO+wDJJAmRNj1ik/0RFjevXqldgnPe/70EMPSTvx0CZwYXwNgXLLAO22d+/ekt+805133mm6dOki3jc97dq1kzqN2+XS4Drugbtk72GVtk1dJKA6eYZZonXr1unz4BQv8a8PeCB1HbbZiZBkEXgTpXxpJ5g2MJ+4UVu6zpM3cffMlJ3rMMxzzz0XHSniiSeekChePg24kHaC27iOQPZvvvlm4wR/OpAMZU5dwn0178Dz8P/Pd9yoR64Joc0vXLgwI94u7q4pe86ta6QFu+sFRTATYNgNT+QYwtcNP+Qz0Djw3407WHyAN2/e3Fx55ZVyjgY0ZswY44YxxvWexvWOch1Rdbx7WsC+xXU1Qx+3EdgASQcZzPexxRGvk0ZfXhAgmcZ35plnio9vGj0F5IWvG+aJgAqhc8LnOBx55JESPZ8OkPejAlMpwsDLNCiOk0cIf9zZEtfTc9999xmn6UlHyvsR4MINZaOzRvLHDVfFVzk+yHkWaUSQJgG3x/Xvqm92vnVn03tKb9P20bZm2xu3NWPmjImucGl45z6zzY3bmC++/8K8tegt+cw2ft746IrcILzolBDce++9t8zLEFcVv+tAg6UsneZjnOYkwa35Do0YyLNWrVqJb3kCWyMEKJMQ6loc6iSCJQnUNYQJgof6RLm7IX4x4c6zideaNH89KD2UH3X+22+/jY6mAnMnAWFGTNp4cBPyK2wz+UJnc9xxx4lwpy0TSzYOAikMlFISRLqiDXt3zJRry5YtJYIWgpG8RMDfeuutGYoHQpQ2AAhx2nQIsoRA53Q4RMpyoxTjtH65lrCO1BU6vRBiF7iRmeR5HGL8htAh0c5OOOEE2UcoI6+Ausczzj77bMl/5A5tjahd1BXcQ8chnVwXQt0mX9ZJV9Kut0rDkNIJausEkdiZsB96GKox/HIVODpiretxxc7k7XWAnZGhpBNu0ZHsbLnlltGnIhjSMDQM6d+/v9jv4pTVFIONjWGl64iiI9Y6oSlDWuBZzz77rHz2DBkyRIaj4Cq1dZVa0smQbdasWXLcCXn577Q4yb9wyLdgwQKZq2BIip3OCfyM4TvDZGyOTqOMjlh73nnn2d13311ssPly0fiL7GYDNrOTP5tsf/r9J7tw5ULb7L5mttatRUN2jn/747e22k3VbLPhzeQz269/FKU7F5jtMKk5wW6dYJK64LQmKX/X2MXujJ3SD1P57zpMOc551ymIzdafB/I9NMXsuOOO0aciyNt4HSnJFHPAAQdkDKl5Frb4uO2WukC9dg0+OpIcygfzCyZLhvq33XZbxjvl4plnnrFOUYj2iiAvec8kxE0xnr59+1onbK3TtsWmHUK5OW1Y2jp5mcsU47Rj67RxOU7+7LnnntZ1CNYJdesEmpg8APs45hHuS93Ajs9z4nTq1Enu7TrtdBskHbQfzBw+75ApzDd8+OGHsj9x4kSZh3AKmORP3BQThzbulIZoz0r5kFbapRPgki+8J/lPvaPd+vJ3iltO27nT8qU9s3lz1bpGxqoYtJbrrrtOQpC5BiCffVQdghQTtcdVRjN8+HDZiIjDcAkNM+SYY47JGJ4mhWEUs+aYNhiKshFkwY8gygu0RB8NH9CIcw2nXGWLPqVAE6enJr2+tw61LoZ7YexQtA+0KNd4REvjMyYan4+jRo0S7ZZhYQjRg3youHyYunCqaV6juWlTq42ptGElCU7+r/3+ZT5f8blZuGKhXMPxqptWFdMLgVX4zLbxBslinlatWlXew+cDow/ylLxCc0MLJkKSHxrz3zVMs3jxYtHaX3nlFalj/jx4M2AuXJ2NPuWGESQaFhqmz2c0ONIcHwGSbt4naVjAEMqHkQDvhSkBTZZRXxKoI2iWcTBHhmnBZIJG6jeCk5cGZiK0TMww1O0LL7zQPPXUU2JSQTNGQ06iaWIaIo3cj5EZYRkZoZC/vuyQE4z2Fy1aJCMNyp+6261bNzkfglmHkRGhDxmxcR/KBE0dM4e/J+3h1FNPNa6jlGsYzXE/noF8oh7wPxwleLiWEbgPjA6UMe+ANYGIXJh0qLu8GwFmqHtJy590zZ071wwbNsycccYZkr51jbRgZyhJpgEvSYKffPJJqbRkCDZhMoEhTbhRyAylQxi6lQWG9pggMGVgEmI4SYDj8iZuuyuNeIDmfAUAlZVKRAVgYygYz0dMBTS2EIaJZQF7eoUNM+cvNt0oJTR/+C37MrB84X1CQgHN8Bzi+cQ1HCMPaHh0Bvngv5cE39i++OKLjHzGLHbyySfLuVUFU4Q33yCkDz/8cDH/MERPMheAKTA0dXpQZoiK5UGAMe/kN99OSwKhh3kD8yACbfz48VK3MJdgnx4xYoSYZzBN+HLzZQZ0ztyDMkbAkoe8G3F1sc8DeUk0LK5xI2ex66MYAvLDjWLE/EbHSl54ezsdBdcRApG8Qu5Qz8M5AA9lRUdB2jBdulGIyAfCMnIMUwrmPw/pPv3008Wmj9KJyc7nFR03ZhzqBbZ40s07omxlM/nFQf6R94D9nvLBdEMZovSuc7iXE0aOHCnmFz8UAkwDLCvCVMDsMuaC+HA1PtxiKI6pojSymWIYhjNbHnL55ZeL2SXOqphi/Ey5hyVifrbbVTh7xx13yGdwFdO6ipphipkyZYoMCV3lSM/0+5UwDOniM+WsImAFAPn53nvviYkhno9x8wKmmJtvvjnay48OT3aw29ywjZhb4Pc/f7cnP3my3XJQUZ6Tvj/+94fd8eYd7QEPHCCf88F1uPKfpatOeMj7sPLgsMMOk+GuE3TpYbQHswV5yXlMbCxLC2FFQmiKYfjMcNmDmcMJosSmGMw+bmQQ7aXg2fG8h2zHSoO6iskh/C75GjdZ5gLzjTcDeljdwZK8JGQzxTgNX8wk1DsI6yJgwvD5zDk3ohTzioclgE6LFRMisMQvXN4ImJ8wWQDLH2kTIZg9qPNOkFonEK0T3Bn5hCmSsmRJJDIEky7XekgXq4VuvPHG6EgR2Uwx1JPOnTuLGZgyBsrHm90wwbE0NoTzLKuMk80UQ3oxF8XTiDkxXn7rAhlqF9oDkw0Mb9BSmSRkeElvuu+++8rQ2lVk6cHp+dDm3YvJd12hiZZADzxr1qwSJ5Deffdd0SD4Pv/pMT1MqKJVMEKgp2fUEJ/goafme/Tk9KCsnHHvEZ1dddDmXGciWhPDa2bJGc7mA/nHhBLaJe/HigC0DUYfDGcJYs0EGc9gFMRQtmnTptG3Cab9gmhEaDkMvXnnfLi+zfXmx99+NNsP2d40Gd7E1Lmtjhn14Shz2f6XRVcY8/D7D5tat9Yyi35YZGZ8NUM+E4u2PEB7xQzCaG706NFyDE2RCWDKjvPnn3++mTx5sky+U3eYpMNcEEJ9YBLONSAZ9jKZHpqmyBfyhwlc6iv3DvOKCTom8B5//HGpI6SBiTGuD2FYzSizLD/eIU20AcxLlCVmSNoJGmISWDHE6JQyJ43kByNlTBZJQZvk3dlor5i8uIePL4uGSzlwf8wx1EGnvMg5NHaupd4z2YrZhjwjKLlfxUKbRFv3iwoGDBggZi1WRAHaOuYJzItA++cZmDsYMWBmIa4v8gT5QLtiEYJTXmT0jCkGDZ4RBNo2soHFBOTtRRddJPf0UEaUOe9C23fKgxxHFvEerCiiXpEXb731lpwDTMqUO/kLaNkdOnSQkYXHyyQvW7gPdQ8YZXTv3l1WzJAu6izv5yeT1zXSMU+xbZNYXoiVIgw3qCBUVA8vzvAK+yh2b4QT9mpeGrsgFSC6nQxVePE42ONDYd6iRQuxtQGVChsgFYxKyaw5jRsBSOUHGg9LlzwM+1iWGTcNlATmHmyMDO08LDcjDQgeBAONgEqDDZJKDrwf1zDMxn6I3Rx7I5WTYS0NBcFEHiGEWDHDPUgfAg77oTdNkM8sw+I8w1SGgjQsH9Tar8ABhq7cl/LIh4UrF5rHP3jczP52tqm2eTXTbpd25qCaB6WH3jMXzTQvfla0Ugc6N+psttkkNZwujbvuukuEM2YzGjmrYTBL0HHTgIEGzpwMxxGc1CVMAj4NLHVkGE/jZKUDdYFGhe0daMSUDUKTzpHGTt5S3ggM8pEVS5SNhw6Vcx7SgDDjXtQlzHtxkxcdMe/QtWvXvOY0uCfKEIIVIYBCQh2hziCskkKeUecQPghN7M/ZVn5kAyWLNuOhLlI/Q/MCNnk6N9LLqiLKh/8hCDoEN4IKJQ6zBR2wh3xEcPI8BDXt3o08o7NGVr3QOVFWyANWnWC28fWWdkvbQdjSDmgTmDJ8XaDd0Sa4BwoR5Y3gDU1SwOor2o2HsuQ5zFPxfnFQmFiKCXT+5BX1jbTzfGSYh3enPnkwFVLXwnZL+uhYKGs3kpF2m2SuYk2jwawVZR0AhQBlA6Vpzz33jI4qStlIpuYqirJaQbNlFRijGiYI+/XrF51RlPxRjV1R1jFYyYGJIjQXKko+qGBXFEUpMNQUoyiKUmCoYFcURSkwVLAriqIUGCrYFUVRCgwV7IqiKAWGCnZFUZQCQwW7oihKgZEW7PhZwAGY3/DLgZ+P0E0qfkH8ec6tDvBJ4R31rAo4BcK5Vi7wIY1fD94nHh1lVcGlKL4lcoHDptJCoBHODb8cRP7BIVYI7lxJO/5VVgf4FME3SC7wFc51+M5QFGXdIC3YV65cKU54cGbFhiezkSNHir9hL6BwyMM5POSFjrzKE7y/JQnZVRo4MystpiPOe3gfvCjica48wZNgab/9wttc3NNgCE6JcOaEMyQCdOAgKgTnUzhfwu/06gCHbbkCkABOzEgDvk4URVk3yDDF4CERD4NsOCIiAgnuY73Qw8sZ57I5xV/XwFMdHt9ywfvgNjT0BrgmIRgAXv1KAq98eJg77LDD0l7wQghQQNmUNbBJeYA3Q7zmlSXSk6Ioq4ecNnYfZcT7JC4NIukTCQgtE9/KuAZF6/fgUvXZZ58VJ0f+PH6cPURpweyA2158QbPhFjcf8OfM9/B9jjYeB9MS5hdGHfhRxj1oGJEGzRN3tAhLzhNBBh/PHkKs8R74V8fnNCMa3sV3fpiReD5mHgJR85lQXKFWjUnLpxGf4dnAxEJ+hPcJ3SCTLxwryRMgHQaCH/epPJ+QYKELZt6RPCDtRMAi2g6dOOCWlHvjShXXyXxmIzB3CGXHcdIXNztRb3gmrpB9PuIWF/etQD3gHfGHjetU0oAbVJ+GEFztEhlHUZSE4CsGiOxDlBM3tJZt3rx5EuWmevXqEkUoZMCAAXbw4MHRXhFjx461c+bMSUdsmT17ttyTewFRTNq2bSuRcriGCC9EL5o2bZqcJ/IJAY+dkJEIRWxO0Mq5pHBfvtevX79iUV/ACUvbq1evdJQVJ0gkuLSPoEQAYKeFpoNIf/311xIU2Wn/sk9UI6IHEUEGeB6RgJwQk33Sy/MJRsz7+fcI8WnkHr17946OZuIEoERmITgwEYO4PswL/xwfRDuE7xGRZu7cubLPdUQYIl89vI8POO6EsnUdlkTKASfQ5TtuRGPfeecd+cwWhzQSHYcISvFyuuaaayRizdKlS2WfqDft27e3PXv2lH0CpZNHRAviu+QJ0bKcsJfzIffff78ExlYUJRkZGjs2XTQ0NrQxIoXglD5pbEqiDeHAHps1WrdrsBJoIowZivmDAB6YFgimQQCNF19MBXzAsT/uSzlHgAm2fM0k/rslfY84i0R88UEESK+PdoPWibtUgj+Qduz93O/qq6+WyWQfnYdA3UzOAueJBkMUHuC5PD98B7aQ0tII5INPI//j1/vnZIP0d+7cWbRl4DrSS4AED8EcnDCVuQiiFxHkgnJjZMFIzd/bPzvbs8I0hqDZMylM0ALiVgIBIEgXgcoZsQAmPeJP8i7kCfWCyeI4TEQzklMUJRkZgh1B+/bbb8uGACTaSNLoIK6TELMLJgwaKAIbgUeUHM55CHcXgnDwAnNNgIBhywYTgUwiE0EG04DfECp0UN6cEg9+yzsgJNcV6EjjJhrMMQ8++KB8Jr95J45h7qGsCOfGZGx5vAeCnc4hPhdDp04d85Hl41GCOB/WFUVRykZOG3s+oO2jJbJskCVybNhL4z6lS9IyPWhu8cZNJ1NeghPhTVqzgSaO4EFrJMRXuLG0kHOQS9P28B5hmqdNmybhBNcE1apVy7kiiHiaCF7/br686LxCELThO5B32cKPxeE+lGE8n+lQ6DzIZyANiqKUP+XWsmjICLxKlSqlNS9ik+a7xpoJSZZSMgkKxDvNFju1rDBZSmBeD8LHP4t0k2biMWKWwcyANs6xfJdgMnLxK16YMCQ2IkJ0TcAk5W233ZZh1sDc1aNHD/nMmnPelbKiAyIP0Njja9EZXfmAxZQngYUxz5UGozwCglNufpRDXFJGCcQzTRro2UM8Usw4iqIkIy3YEco+mHJJYFZh5cJDDz0kDZ7PXgtFSyOaP6sssNfuv//+YqfGJODtsDR4hEkIWrDXhIFGT8BpVlJwH2zBRHJPqt35NCII2PgcruZgbTYCjw6EoL+YIbAD+5EEwoxg13QAPB9TDCMPzEvAe8bNUwQuji/3w76MZkwwXZ518cUXp80jaL6kC4FFgGA+x4UqeYldn3LhHmHEdWCegO9xnv9hAGxMSazeYfUPP2wisjqBxhlRAatVmD/g3VgNwyqlPn36yColBL2HVUVo6HyfoMF+6aWHINussafMSCMBnT39+/cXkxVpoU6w8oUVND6d5Jm3v3uoJ/FjwG8CCCKsKEoyyj2CEpougpQfM4VCIl9IFgKQ+6yOITudDmaBXHMIdFoIcrT2ssI9sDWjIa8NeD5CNFvUfN4f80jcFh4n1PDzBVMOaVhd5agoSnE0NJ6iKEqBoSqUoihKgaGCXVEUpcBQwa4oilJgqGBXFEUpMFSwK4qiFBgq2BVFUQoMFeyKoigFhgp2RVGUAkMFu6IoSoGR/uUpTppCJ1X8hJyfgbOVNzjFwpsgvkNW5ef6cfj5On5datasGR1Jgb+T+LHygvfgffCjEvdk+VcHdwO4deAd8ciILyHvU4eoU9lireI3xrtFJl4q4f1wI0xkLV+XcGGAmwLvfC0EtwP5hPrDLQL3IZ01atSQ58ddWVAv8AGfzfmYP0cacR+BK+Gk8QcA30RxeAd83nDv0BEb6eIZhGMMIR+powRyx38PkbV4H2IFAG2T++Cxk4hdRKPK5iICaMO03XzrIuVBFDDyk+d6D5whOIvDqR/5HHppJcoX6fXQprfddttiaaRtvvvuu3Jv3iObX6C1ja/vpB0vqaEfqyT88ssvUifYyCfeNYk32PImLdgJuIDDqDPPPFP8tLCPJz+cT4UBGsoD7otDLBo9jqfKCwQJFSbuRZFKXt7Bqj3XXnutBHOmIhDurVBAmBD+j0aOk7GPPvrIfPbZZ+LcC1q3bi0CMO5TnRB2OFfDZxDfxcEYjsDwNonAx7kZQVwef/xxCbKBozUPzxw/frw4KEsC5Y3zMp5HI8IJGWnC4Voo3HG5TAi+u+66q5i/Gjx38lxCCNKgp06dKkFCkgqdbt26Sf6EILyPP/548ZmELyI8e3KMxs774TgN3/ikkXfAWRodH9/BMRwdDcIAF9jA+3EtTuGefvpp8/rrr0t5xIUv7QqHcwTK4TlJ4XnUY+LXbrPNNmbs2LHixI/0hOCtEwd9lB3O+TwEonn++eflHfDB9Morr4iARIagvAEO43DARyAbgvfw/gSniXdyaxNiENPxEKMAZYG6QFjMbApBNuigyQtkEPJtypQpIkvxdLrG/SQh2IHQeK7hRXup8G2EqXMFXSzs2apCSDWngcj/8oTwa4S5i0N4udXJU089ZY888shorzAgVB5h76gHHqfVRZ+sPeigg+yECROiveJceeWV1gnuaC8Vns8JePvoo4/KPqHuzjvvPPnscQLPPvPMM9FebkiX63isE9rREWtdw7JO0Gak0wlOe+mll1rXoUjIvxAnHK0TVBIa0EOIxNGjR0d7pUOYxZLg2U4gW6doREesdQqGdY1cQjLCBRdcYLt37y6fgTS6zsrus88+sk8+co1vg7w37+KErOyHNGrUyLpO07Zr1y46Ujq0QcIVOiUrOpIqZyeIM/LWafLWaa8SypByCnHCT7aQf/3rX5Lv4EYa1o3WpH16kC0cc6OA6MjahRCOpDdMD3nilISsYSGzMXToUOs6g2gvVVaE6HQjsejImqPEbgQNAfMFQzSXQDmGho0W1759e9luuukmGbp56LFwy4qGgqbmKqz0eiEPP/ywuJwlRFo2Mwzatqs8EsCYXp5eHy2mvCB6D1raaaedJmmkN/XDadJPoGo2tG9GK2hJXIem4SGNvAMuf12jE5/xniFDhqSH3yNGjDAvv/yyfMaNrne9y7AbDQmth4DO5FmYj66hSRpeffVV4xqAaLi44HVCL7rCmNmzZ4t/dPLJNSLJpzi8DyHx5s+fHx1JBvmBdo4myXMoQ9KM1pkUzFPepTMwdL/nnnvEHTLwP9QIySuuCQNu5wLNENNQ6Gqa7+P619VrqbNotrfccou4Dc6mMVEX8L0fet5klBG6eU4CaSGf0LDDcsyGHwkwomFDA/ejICCd1E0fIBwX2fiw98N5TGDUKbRL2ibwvtQZNHXvXjopRAwjr3wYRaCeorkTHMbDiJf2SnthhOqfXRIEUmc0Arivxo21N9FRLwh8j9kC88yqwgiPIPJxGKlxnLpYGoxwaEveDEfaOMZ3w2D3ucB1N+/tQYbiEZUR4Zomo7ZjU/Wh8RhGIGCvu+66tD91BBA2J44jeCj4s846S87xXXx7I9QYClNZ8dGNAMM258H0wnEEexzsd07bEAHCMJ1Kin90Kn9SqKQ02HCj4nsGDBgglZQo/Qy5gfRQ2WjgfKZQndYm74lQ5zoEAGCLJSgFaeRe+Cd3WqicA4bzPr10fAxdeT55RyMCOkcaKo0EwYvtlDCCHtLAMSo/ftTp4LjWVxqGsqSH4R75hF32iCOOyOhgAMGAUA4FbBIoB+zgCEUaOfk1atQoEb4hvE+Yz14BAPKO0IqUHx0UDQSf7P4dMO+FQghTDXUqKdRJTAP8pwOjEdMQMbthFiMtRN6ifEoSdpg4vCmQd8TG/cQTT4iZKSk0Wkw8dCK0G+oK/0O4L8e4ho6fdkI6MUUgQON2XEIWulGgdBh0Mgh5QAhiIqGDx/REjFogMA3HfBzefCDf6MB9x0eeYY5AaeC+HhQyOg+EM775MauEIPx4R+qLG8lJnmBygkmTJokiCMgCyg1zB+0oSeCW0iAPMQXR2YUMGzZM8j7JPB7tjXYElClhPmlfbElNgyhgdNzUdeQAHSD1kPJc4zihI2CKYYhYr1492VwPLlHtw2FkCENGhrBbbbWV7DMMZmjF8DY+5M2G692iT0U4zaTYkO7JJ5+0TmhFe7lhqOeEs5hjws019OiKTHw6XeHZiRMnymdwWpJE3g+Hop6uXbumI+17QlOM6+xkKOwqh5iAGB7zuWrVqtY1FLkmhDS4iiB5F4KZwgnBaK8IV1FsgwYN7OTJk6MjKRja8izOryozZswQk4ar0NGRVDpdR2ZdQ5R9TDGuEmfk8zfffCPnPNSJHj16WCeErNOEJW+y1Q3XkVinVUd7+TNz5kzrRlAy7HXCMjpahOvYxHSRq17yXdd5SllSXknBpBQO33kWw3fqIqYYmpjrPKRNuc7M1qlTR8w9pMUJUduiRYvomyk6d+5sTznlFOu0drmv0yAlH90oyjoBLOYxcJ2/dcqXXFO9evV0uTzwwAN5mWKoR2PHjpXPbsRhBw4cKJ/B13Pyg/bK+4AT2vaoo46Sz0CbxWTrZUetWrWs69Dtd999J+ep29RLzEm8mzfRUcec8JXPq4oT7NLevMmKtGI68mkoDdobJijKxXVi1ilnctwpNMXaWmlgZqY+Up+Qq+XRJvMlQ7DHbezYmBCKy5cvl2OuV5aC4To3xLDbbrutdb2hnAMaMQKRQnbDGhGQPqPjZBPs2GBffPHFaC8F6Uja0GhMCBg6nHALbewUHBURQcM7OM3UuiG8NDYP6T7xxBOjvUxatWqV0QlAKNhpaNzT9da2U6dO1vXWUmFooN5Wt2zZMnvmmWeKYCQNCP1450NFi3cgQFnQeR166KHyTL+1bdtWOmbf+FYFGji23TgITd/wEexOQ87I55LgHAKJ9E2fPj06WoQbzYi9fFWgnpD3TtPMsLFDEsHO9zlPPaAxe6jz2Lj9Fgq+knCjUbG1UhZxGzt1AEHstFuxPbtRTHQmBUKcMkYoYdemLtHBxjtzbPDkJXlHXUChYnMjbNuyZUsR9L5MUCjCd2DzcA8EmdP+rRtdp9sryga2fnjzzTelrSMjSLPTwGXfE7exk490Fm6kJPvbb7+95K8b/YpywGdgPsBpxvJ5VfFKndOUZZ8Ojs4vKcxzUF58zwt1ePDBB0UhyRfekfx3I7h1z8bOsiqGFcxwMzxjBQNxK7ElMgxk2BZGIML0gC2WMGbYjhmCM+R0FSK6IjeYJzCDhJAObwpKCiaVcAvBBOA0CIkByjswBPND3RCGutkgja6jifaKw7APUwCmHEwPbAzzGX5jA2Y1A6HmsJmTf6TBNZys9utsoQq5P++E7RBzl99uuOEG4zTXMkU5isNqC1c3or0iGK67yhrtpfZLymfmJvzcBedYrcG8BemM4zpKGfLmgxPisjrDp4d6gn0UMxb27iRQB3xMXr7P+2C6IR89DK0xLfqN4bYHkxh1PA7v6xp2tJcJdYD7uA5E6iKmPUwuHuoOJjWeS13DTMOqIkxbbdq0ia5KmWXIM+YEMCEQqpIN0xtzQE5AiYkKqMvhO7B5aOPeBIX5hWcCdXK33XaTz5QPJitMcdj8MXlh/mD1TDbIR8JL+nkfTGGsuKEOYM4hr53wF5Mlx8oDTESsfHIdjOyTTsyXScEcxVwA+U7agTKkvWZrh9kgzKWfY+EdqQe0dear1jQlCnagglBICB2COWPfw5ZLZWAZE/Yx7KxAJmAzZPkby57oAKhoFFxSOxqNKm7HxcboJx3LA5Z2MamL3Yt3oGPyAiiEgskGeYDQDgknkmgYVA4qLcvgnDYlS+L8pCAdJOuUyUcmrEgD9rhsk1HZ0kBZMGmLQMHW6TeWjbH5hgkIZzrlUBgngTKkA+G7HsqXDtuNDKIjueFaJozDDoL5l/gadc6jDPiJtaSQPuoFtn0PwgK7cNI13OQv6QzTGG/IKBXUd78hSD10gHQOoTKCMOV9wkm0EIQ4HRINnrI6+uijZYlcCG0AYcg7MsdDB+Bt1MC8Fd9jHoR2ht3eb0zIcz0dqLfd09mH78Dmof5TPxBmvgxQ5uiEUeQod+zrzCOFz0FA8z+bAgDY1VnLDswRYW/mv6+fdJ58l7ZQXrhRrtj+WXDA2vqkE/FAO2W+IZxMp9MnL5LWJ+oenX0I94zHQ14TZKxjR9thtQfwUlRaJr/oBRHOCF43jBNh5CfVmChBWNJTIdDRHsgkKhWraKikNB4/645Q5F5MJjLZwwSW10RomFRkKhqakRsayUoKKkSnTp3kmlxwPQ0KLSiEhuo1M3pmtAeeSwNk0gntByFEOmgQjDCYMGFyhxUn4XphNMUjjzxSVgwxAYSwogNDuyHoMnTt2lUaA4KRd/XrwGlwaGM8h0qIkONZdIh0nFRGoOGi0fFcJvJ69OghjdzDZCj34L785z1IP1qXX3UCXEelRMPyk79JobMhmDV5QFnSIVE+lD+QLoRcKCTABwKnwZLvvDP1gfcmn2bMmJGxdhnBQT6QX/mmkYbEiinSQl5RhxGcTM75xonmybsgaOhM6QRD4cwKKd6P45QXa+Hp+KtVqxZdkRvynHcj7bwLzyE91DG/jp3yQwjTAbCihefR8fOftCGAyGfSwPMRDrQ9OnHaAmVMHpF+tGvqLMLLrxH3MNnOoge+T7vludlGgnHIRzRcnkM6meRFI6cNkn8EQY8LLN4ZeUG7YsTI2nW+jzihTXAPVsKwGIJ3YASHosjvZOiMWRTAZCf3KC94Nh0esomA7XQ+cWhrtFXSEv4Gg7Kjw2X9Oh0a8gzZRrrDFUPAiAeFldVKIQhx6jhykPqD/CN/aDPlMZLOh7RgRyjSq3roZch0NHYPBcLqCAQ6phbMDFTEcNUBM+NUbio1FZUlRKEWiRnHC1lAMMRnjSkYNAbSwA9ekv5AgApEBYuvggjTyDW8AwKXH2TRqHhvCpvn0aBCaLB+CVQIw1MaKZoXnQSrAvwPVehYWGJI40aD4zoqPcNwIG/o8KhcVETMNOQZy9WARush70i7F1QhrASgASFEWZ0UN1kh5Hh3hvKMIvKFyk7aGU3Uq1cvo4JjRvIdUQgdOwKHjoplhggG3o3v0qjjUP24lroSdqBJoTwpP+ovnYg3H3jo9MhvD2aJuAZFA6Q+kEctW7YscbRWEpQ9HR9thbqAwAbSRj3xUD40+vjzKSeG8Qht2hx1Mp4GOnrKGvMLWnnYpjyUVWgKoN4kNWNST6dPny7fR/nxmjRmBDo80h0HwccIDiHPBjyXjhvZEH8H2jXvQadBXch3lJYE6iR1k3Kgk4qDhYHVWjw/W6eHcMaUh0mM0Tn/41DfeAfqWxzKEhmIYoiJl/aQb30qD9KCXVEURSkMctrYFUVRlL8eKtgVRVEKDBXsiqIoBYYKdkVRlAJDBbuiKEqBoYJdURSloDDm/wGh54cNewhcUQAAAABJRU5ErkJggg==;" vertex="1" parent="SpQzwTgwdDxSrPTeLPvR-13">
          <mxGeometry x="3.5" y="30" width="376.5" height="221.47" as="geometry" />
        </mxCell>
        <mxCell id="SpQzwTgwdDxSrPTeLPvR-16" value="" style="aspect=fixed;perimeter=ellipsePerimeter;html=1;align=center;shadow=0;dashed=0;spacingTop=3;image;image=img/lib/active_directory/databases.svg;" vertex="1" parent="1">
          <mxGeometry x="-656" y="460" width="112.24" height="110" as="geometry" />
        </mxCell>
        <mxCell id="SpQzwTgwdDxSrPTeLPvR-18" value="" style="verticalLabelPosition=bottom;sketch=0;html=1;fillColor=#282828;strokeColor=none;verticalAlign=top;pointerEvents=1;align=center;shape=mxgraph.cisco_safe.business_icons.icon14;" vertex="1" parent="1">
          <mxGeometry x="-386" y="455" width="134" height="120" as="geometry" />
        </mxCell>
        <mxCell id="SpQzwTgwdDxSrPTeLPvR-19" value="" style="aspect=fixed;perimeter=ellipsePerimeter;html=1;align=center;shadow=0;dashed=0;spacingTop=3;image;image=img/lib/active_directory/web_server.svg;" vertex="1" parent="1">
          <mxGeometry x="-168" y="585" width="112" height="140" as="geometry" />
        </mxCell>
        <mxCell id="SpQzwTgwdDxSrPTeLPvR-20" value="" style="aspect=fixed;perimeter=ellipsePerimeter;html=1;align=center;shadow=0;dashed=0;spacingTop=3;image;image=img/lib/active_directory/mac_client.svg;" vertex="1" parent="1">
          <mxGeometry x="-746" y="620" width="103.4" height="110" as="geometry" />
        </mxCell>
        <mxCell id="SpQzwTgwdDxSrPTeLPvR-24" value="" style="endArrow=classic;startArrow=classic;html=1;rounded=0;entryX=0.484;entryY=1.01;entryDx=0;entryDy=0;entryPerimeter=0;exitX=0.793;exitY=-0.019;exitDx=0;exitDy=0;exitPerimeter=0;" edge="1" parent="1" source="SpQzwTgwdDxSrPTeLPvR-1" target="SpQzwTgwdDxSrPTeLPvR-18">
          <mxGeometry width="50" height="50" relative="1" as="geometry">
            <mxPoint x="-386" y="680" as="sourcePoint" />
            <mxPoint x="-336" y="630" as="targetPoint" />
          </mxGeometry>
        </mxCell>
        <mxCell id="SpQzwTgwdDxSrPTeLPvR-25" value="" style="endArrow=classic;startArrow=classic;html=1;rounded=0;entryX=0.903;entryY=1.016;entryDx=0;entryDy=0;entryPerimeter=0;" edge="1" parent="1" source="SpQzwTgwdDxSrPTeLPvR-1" target="SpQzwTgwdDxSrPTeLPvR-16">
          <mxGeometry width="50" height="50" relative="1" as="geometry">
            <mxPoint x="-526" y="680" as="sourcePoint" />
            <mxPoint x="-476" y="630" as="targetPoint" />
          </mxGeometry>
        </mxCell>
      </root>
    </mxGraphModel>
  </diagram>
</mxfile>
